<svg width="16" height="16" viewBox="0 0 16 16" fill="none" xmlns="http://www.w3.org/2000/svg">
<path d="M12.175 9H1C0.716667 9 0.479167 8.90417 0.2875 8.7125C0.0958333 8.52084 0 8.28334 0 8C0 7.71667 0.0958333 7.47917 0.2875 7.2875C0.479167 7.09584 0.716667 7 1 7H12.175L7.275 2.1C7.075 1.9 6.97917 1.66667 6.9875 1.4C6.99583 1.13334 7.1 0.900003 7.3 0.700003C7.5 0.516669 7.73333 0.420836 8 0.412503C8.26667 0.404169 8.5 0.500003 8.7 0.700003L15.3 7.3C15.4 7.4 15.4708 7.50834 15.5125 7.625C15.5542 7.74167 15.575 7.86667 15.575 8C15.575 8.13334 15.5542 8.25834 15.5125 8.375C15.4708 8.49167 15.4 8.6 15.3 8.7L8.7 15.3C8.51667 15.4833 8.2875 15.575 8.0125 15.575C7.7375 15.575 7.5 15.4833 7.3 15.3C7.1 15.1 7 14.8625 7 14.5875C7 14.3125 7.1 14.075 7.3 13.875L12.175 9Z" fill="#1E293B"/>
</svg>
