<svg width="24" height="24" viewBox="0 0 24 24" fill="none" xmlns="http://www.w3.org/2000/svg">
<g clip-path="url(#clip0_301_426)">
<path d="M17.4511 2.34394C17.625 2.14396 17.8712 2.0212 18.1356 2.00263C18.3999 1.98407 18.6609 2.07122 18.8611 2.24494C20.1543 3.36762 21.1934 4.75307 21.9091 6.30894C22.0199 6.55002 22.0305 6.82527 21.9384 7.07413C21.8463 7.32299 21.6591 7.52508 21.4181 7.63594C21.177 7.7468 20.9017 7.75735 20.6529 7.66527C20.404 7.57319 20.2019 7.38602 20.0911 7.14494C19.4949 5.84731 18.629 4.69165 17.5511 3.75494C17.3509 3.58115 17.228 3.33502 17.2092 3.07064C17.1905 2.80625 17.2775 2.54423 17.4511 2.34394ZM5.13605 2.24494C5.33629 2.07096 5.59744 1.98364 5.86206 2.00221C6.12667 2.02078 6.37307 2.1437 6.54705 2.34394C6.72103 2.54418 6.80835 2.80533 6.78978 3.06994C6.77121 3.33456 6.64829 3.58096 6.44805 3.75494C5.37015 4.69165 4.50426 5.84731 3.90805 7.14494C3.85476 7.26661 3.77776 7.37644 3.68155 7.46803C3.58534 7.55961 3.47185 7.63111 3.3477 7.67835C3.22356 7.72559 3.09124 7.74763 2.95849 7.74317C2.82573 7.73871 2.69519 7.70784 2.5745 7.65238C2.4538 7.59691 2.34537 7.51796 2.25552 7.42012C2.16568 7.32228 2.09622 7.20753 2.05122 7.08255C2.00621 6.95758 1.98655 6.82489 1.99339 6.69224C2.00023 6.55958 2.03343 6.42962 2.09105 6.30994C2.80572 4.75399 3.84378 3.36821 5.13605 2.24494ZM14.2351 18.9999C15.1001 18.9999 15.5571 20.0239 14.9801 20.6679C14.6052 21.0874 14.146 21.4229 13.6324 21.6524C13.1189 21.882 12.5626 22.0004 12.0001 21.9999C11.4375 22.0004 10.8812 21.882 10.3677 21.6524C9.85413 21.4229 9.39488 21.0874 9.02005 20.6679C8.46805 20.0519 8.86205 19.0889 9.65405 19.0069L9.76405 19.0009L14.2351 18.9999ZM12.0001 1.99994C13.3581 1.99994 14.5061 2.90294 14.8751 4.14094L14.9211 4.31194L14.9291 4.35494C16.0314 4.97684 16.9708 5.85104 17.6703 6.90594C18.3697 7.96083 18.8093 9.16642 18.9531 10.4239L18.9811 10.7109L19.0001 10.9999V13.9309L19.0211 14.0669C19.158 14.8038 19.5657 15.4627 20.1641 15.9139L20.3311 16.0309L20.4931 16.1299C21.3531 16.6169 21.0531 17.8959 20.1161 17.9939L20.0001 17.9999H4.00005C2.97205 17.9999 2.61305 16.6359 3.50705 16.1299C3.88808 15.9143 4.2173 15.6179 4.47159 15.2615C4.72589 14.9051 4.89909 14.4974 4.97905 14.0669L5.00005 13.9239L5.00105 10.9539C5.06203 9.64782 5.44221 8.37655 6.10834 7.25141C6.77446 6.12626 7.70622 5.18154 8.82205 4.49994L9.07005 4.35394L9.08005 4.31094C9.22151 3.71296 9.543 3.17278 10.0011 2.76327C10.4593 2.35377 11.032 2.09467 11.6421 2.02094L11.8241 2.00394L12.0001 1.99994Z" fill="#FAFAFA"/>
</g>
<defs>
<clipPath id="clip0_301_426">
<rect width="24" height="24" fill="white"/>
</clipPath>
</defs>
</svg>
