<svg width="46" height="68" viewBox="0 0 46 68" fill="none" xmlns="http://www.w3.org/2000/svg">
<mask id="mask0_18_1945" style="mask-type:luminance" maskUnits="userSpaceOnUse" x="0" y="0" width="46" height="68">
<path d="M8.15587 33.2967C8.42421 33.675 8.68504 34.0725 9.00837 34.5658C10.32 36.5634 12.6525 40.1158 14.6875 41.9825C15.6375 42.855 15.8959 43.3442 15.9234 43.2758C16.38 42.0658 16.24 39.5242 15.9659 37.0367C15.7559 35.1425 15.4575 33.2592 15.155 31.36C14.5842 27.7667 14.005 24.1209 13.9775 20.6225C12.9575 20.9417 11.9517 21.3067 11.0192 21.7425C9.77171 22.3259 8.64587 23.0375 7.80171 23.9384C6.62004 25.2034 6.14171 26.6083 6.16421 28.0167C6.19171 29.7883 6.97671 31.6367 8.15587 33.2983V33.2967ZM5.59837 36.7967C5.23837 36.2492 4.94837 35.8075 4.84087 35.655C3.22171 33.3725 2.14254 30.7317 2.10171 28.0625C2.06337 25.6475 2.85754 23.2667 4.82254 21.1642C6.05671 19.8458 7.61087 18.8467 9.29837 18.0592C10.8967 17.3142 12.5934 16.7633 14.2325 16.3059L14.2784 16.2942C14.9259 12.2542 16.7234 8.54752 20.66 5.52002C21.5309 4.84918 22.4584 4.22085 23.4159 3.65335C26.4684 1.84585 29.9859 0.54835 33.2709 0.332516C36.86 0.0975163 40.1734 1.11668 42.4325 4.05418C42.6892 4.38752 42.9242 4.73252 43.1342 5.08752L43.2209 5.23335C44.09 6.70085 44.7884 7.87668 45.0809 9.06085C45.8034 11.9792 44.5892 13.7259 39.4092 15.0084C38.0767 15.3392 35.8009 15.7842 33.0125 16.3309C28.6017 17.1942 22.9092 18.3083 18.11 19.4967C17.955 23.06 18.5684 26.9242 19.1709 30.7225C19.49 32.7292 19.8067 34.7208 20.0134 36.59C20.3442 39.5858 20.4659 42.7642 19.7309 44.7117C18.5142 47.9367 16.1809 48.8792 11.9317 44.98C9.51671 42.7642 7.00837 38.9459 5.60004 36.7983L5.59837 36.7967ZM23.1442 8.73918C20.8409 10.5117 19.4975 12.7 18.7809 15.1484C23.3142 14.0767 28.2817 13.1042 32.2275 12.3317C35.02 11.785 37.3017 11.3392 38.435 11.0584C40.5709 10.5283 41.1842 10.2625 41.1275 10.0333C40.9817 9.44585 40.4175 8.49335 39.7134 7.30585L39.6267 7.16085C39.4884 6.92668 39.3492 6.72002 39.2125 6.54168C37.8967 4.83085 35.8267 4.24668 33.5242 4.39668C30.9167 4.56668 28.0375 5.64918 25.4859 7.15918C24.6484 7.65502 23.8609 8.18668 23.1442 8.73918ZM37.845 34.7042C37.6842 34.4775 37.3792 34.0133 37.0009 33.4367H36.9934C35.6825 31.4392 33.3492 27.885 31.3142 26.0184C30.3642 25.145 30.1059 24.6567 30.0784 24.725C29.6217 25.9342 29.7617 28.4767 30.0359 30.9642C30.2459 32.8583 30.545 34.7417 30.8467 36.64C31.4175 40.2342 31.9959 43.88 32.0225 47.3783C33.0425 47.0592 34.0492 46.6933 34.9809 46.2584C36.2284 45.675 37.355 44.9633 38.1984 44.0617C39.3809 42.7975 39.8592 41.395 39.8359 39.9917V39.9842C39.8084 38.2125 39.0242 36.3642 37.845 34.7025V34.7042ZM40.3975 31.2083C40.7009 31.67 40.9459 32.0417 41.1592 32.345C42.7775 34.6267 43.855 37.2642 43.8992 39.9292C43.9367 42.3484 43.1434 44.7325 41.1775 46.835C39.9442 48.1534 38.39 49.1525 36.7017 49.94C35.105 50.685 33.4059 51.2359 31.7684 51.6933L31.7225 51.705C31.0742 55.745 29.2775 59.4517 25.3417 62.4792C24.4709 63.15 23.5434 63.7784 22.5859 64.3459C19.5334 66.1534 16.0142 67.4509 12.7317 67.6667C9.14171 67.9017 5.82921 66.8825 3.57087 63.945C3.31421 63.6117 3.07921 63.2667 2.86921 62.9117L2.78254 62.7659C1.91337 61.2984 1.21504 60.1225 0.92254 58.9384C0.20004 56.02 1.41421 54.2733 6.59421 52.9908C7.92671 52.6609 10.2025 52.215 12.9909 51.6684C17.4017 50.805 23.0959 49.69 27.8934 48.5025C28.0484 44.9392 27.435 41.075 26.8325 37.2767C26.5134 35.2683 26.1967 33.2784 25.99 31.4092C25.6592 28.4133 25.5375 25.235 26.2725 23.2892C27.4892 20.0642 29.8225 19.1217 34.0717 23.0209C36.4867 25.2367 38.995 29.0567 40.4034 31.2025L40.3975 31.2058V31.2083ZM22.8559 59.2617C25.16 57.4892 26.5034 55.3008 27.2192 52.8542C22.6859 53.9258 17.7167 54.8984 13.7709 55.6709C10.9784 56.2175 8.69921 56.6634 7.56504 56.9442C5.43004 57.4725 4.81671 57.7392 4.87254 57.9684C5.01837 58.5559 5.58337 59.5092 6.28754 60.6975L6.37421 60.8434C6.51171 61.0767 6.65004 61.2834 6.78837 61.4625C8.10421 63.1725 10.1742 63.7575 12.4767 63.6067C15.0842 63.4359 17.9634 62.355 20.5142 60.8434C21.3517 60.3467 22.14 59.8159 22.8559 59.2634V59.2617Z" fill="white"/>
</mask>
<g mask="url(#mask0_18_1945)">
<path d="M0.729187 0.252502V67.7725H45.2092V0.252502H0.729187Z" fill="url(#paint0_linear_18_1945)"/>
</g>
<defs>
<linearGradient id="paint0_linear_18_1945" x1="40.5573" y1="-0.644354" x2="26.4198" y2="72.7225" gradientUnits="userSpaceOnUse">
<stop stop-color="#0A5A96"/>
<stop offset="0.03125" stop-color="#0A5A96"/>
<stop offset="0.0390625" stop-color="#0A5A95"/>
<stop offset="0.0429688" stop-color="#0A5994"/>
<stop offset="0.046875" stop-color="#0A5894"/>
<stop offset="0.0507813" stop-color="#0A5893"/>
<stop offset="0.0546875" stop-color="#0A5792"/>
<stop offset="0.0585938" stop-color="#0A5691"/>
<stop offset="0.0625" stop-color="#0A5691"/>
<stop offset="0.0664063" stop-color="#0A5590"/>
<stop offset="0.0703125" stop-color="#0A558F"/>
<stop offset="0.0742188" stop-color="#0A548E"/>
<stop offset="0.078125" stop-color="#0A538E"/>
<stop offset="0.0820312" stop-color="#0A538D"/>
<stop offset="0.0859375" stop-color="#0A528C"/>
<stop offset="0.0898438" stop-color="#0A528B"/>
<stop offset="0.09375" stop-color="#0B518B"/>
<stop offset="0.0976563" stop-color="#0B508A"/>
<stop offset="0.101563" stop-color="#0B5089"/>
<stop offset="0.105469" stop-color="#0B4F88"/>
<stop offset="0.109375" stop-color="#0B4F88"/>
<stop offset="0.113281" stop-color="#0B4E87"/>
<stop offset="0.117188" stop-color="#0B4D86"/>
<stop offset="0.121094" stop-color="#0B4D85"/>
<stop offset="0.125" stop-color="#0B4C85"/>
<stop offset="0.128906" stop-color="#0B4C84"/>
<stop offset="0.132813" stop-color="#0B4B83"/>
<stop offset="0.136719" stop-color="#0B4B82"/>
<stop offset="0.140625" stop-color="#0B4A82"/>
<stop offset="0.144531" stop-color="#0B4981"/>
<stop offset="0.148438" stop-color="#0B4980"/>
<stop offset="0.152344" stop-color="#0B487F"/>
<stop offset="0.15625" stop-color="#0B487F"/>
<stop offset="0.160156" stop-color="#0B477E"/>
<stop offset="0.164062" stop-color="#0B467D"/>
<stop offset="0.167969" stop-color="#0B467C"/>
<stop offset="0.171875" stop-color="#0B457C"/>
<stop offset="0.175781" stop-color="#0B457B"/>
<stop offset="0.179688" stop-color="#0B447A"/>
<stop offset="0.183594" stop-color="#0B4379"/>
<stop offset="0.1875" stop-color="#0B4379"/>
<stop offset="0.191406" stop-color="#0B4278"/>
<stop offset="0.195312" stop-color="#0B4277"/>
<stop offset="0.199219" stop-color="#0C4176"/>
<stop offset="0.203125" stop-color="#0C4076"/>
<stop offset="0.207031" stop-color="#0C4075"/>
<stop offset="0.210938" stop-color="#0C3F74"/>
<stop offset="0.214844" stop-color="#0C3F73"/>
<stop offset="0.21875" stop-color="#0C3E73"/>
<stop offset="0.222656" stop-color="#0C3D72"/>
<stop offset="0.226563" stop-color="#0C3D71"/>
<stop offset="0.230469" stop-color="#0C3C70"/>
<stop offset="0.234375" stop-color="#0C3C70"/>
<stop offset="0.238281" stop-color="#0C3B6F"/>
<stop offset="0.242188" stop-color="#0C3B6E"/>
<stop offset="0.246094" stop-color="#0C3A6D"/>
<stop offset="0.25" stop-color="#0C396D"/>
<stop offset="0.253906" stop-color="#0C396C"/>
<stop offset="0.257812" stop-color="#0C386B"/>
<stop offset="0.261719" stop-color="#0C386A"/>
<stop offset="0.265625" stop-color="#0C376A"/>
<stop offset="0.269531" stop-color="#0C3669"/>
<stop offset="0.273437" stop-color="#0C3668"/>
<stop offset="0.277344" stop-color="#0C3567"/>
<stop offset="0.28125" stop-color="#0C3567"/>
<stop offset="0.285156" stop-color="#0C3466"/>
<stop offset="0.289062" stop-color="#0C3365"/>
<stop offset="0.292969" stop-color="#0C3364"/>
<stop offset="0.296875" stop-color="#0C3264"/>
<stop offset="0.300781" stop-color="#0C3263"/>
<stop offset="0.304687" stop-color="#0D3162"/>
<stop offset="0.308594" stop-color="#0D3061"/>
<stop offset="0.3125" stop-color="#0D3061"/>
<stop offset="0.316406" stop-color="#0D2F60"/>
<stop offset="0.320312" stop-color="#0D2F5F"/>
<stop offset="0.324219" stop-color="#0D2E5E"/>
<stop offset="0.328125" stop-color="#0D2E5E"/>
<stop offset="0.332031" stop-color="#0D2D5D"/>
<stop offset="0.335937" stop-color="#0D2C5C"/>
<stop offset="0.339844" stop-color="#0D2C5B"/>
<stop offset="0.34375" stop-color="#0D2B5B"/>
<stop offset="0.347656" stop-color="#0D2B5A"/>
<stop offset="0.351562" stop-color="#0D2A59"/>
<stop offset="0.359375" stop-color="#0D2A59"/>
<stop offset="0.363281" stop-color="#0D2A59"/>
<stop offset="0.367188" stop-color="#0D2B5A"/>
<stop offset="0.371094" stop-color="#0D2B5B"/>
<stop offset="0.375" stop-color="#0D2C5C"/>
<stop offset="0.378906" stop-color="#0D2D5C"/>
<stop offset="0.382812" stop-color="#0D2D5D"/>
<stop offset="0.386719" stop-color="#0D2E5E"/>
<stop offset="0.390625" stop-color="#0D2E5F"/>
<stop offset="0.394531" stop-color="#0D2F60"/>
<stop offset="0.398438" stop-color="#0D3060"/>
<stop offset="0.402344" stop-color="#0D3061"/>
<stop offset="0.40625" stop-color="#0D3162"/>
<stop offset="0.410156" stop-color="#0C3263"/>
<stop offset="0.414063" stop-color="#0C3264"/>
<stop offset="0.417969" stop-color="#0C3364"/>
<stop offset="0.421875" stop-color="#0C3465"/>
<stop offset="0.425781" stop-color="#0C3466"/>
<stop offset="0.429688" stop-color="#0C3567"/>
<stop offset="0.433594" stop-color="#0C3668"/>
<stop offset="0.4375" stop-color="#0C3669"/>
<stop offset="0.441406" stop-color="#0C3769"/>
<stop offset="0.445313" stop-color="#0C376A"/>
<stop offset="0.449219" stop-color="#0C386B"/>
<stop offset="0.453125" stop-color="#0C396C"/>
<stop offset="0.457031" stop-color="#0C396D"/>
<stop offset="0.460938" stop-color="#0C3A6D"/>
<stop offset="0.464844" stop-color="#0C3B6E"/>
<stop offset="0.46875" stop-color="#0C3B6F"/>
<stop offset="0.472656" stop-color="#0C3C70"/>
<stop offset="0.476563" stop-color="#0C3D71"/>
<stop offset="0.480469" stop-color="#0C3D71"/>
<stop offset="0.484375" stop-color="#0C3E72"/>
<stop offset="0.488281" stop-color="#0C3E73"/>
<stop offset="0.492188" stop-color="#0C3F74"/>
<stop offset="0.496094" stop-color="#0C4075"/>
<stop offset="0.5" stop-color="#0C4076"/>
<stop offset="0.503906" stop-color="#0C4176"/>
<stop offset="0.507812" stop-color="#0B4277"/>
<stop offset="0.511719" stop-color="#0B4278"/>
<stop offset="0.515625" stop-color="#0B4379"/>
<stop offset="0.519531" stop-color="#0B447A"/>
<stop offset="0.523438" stop-color="#0B447A"/>
<stop offset="0.527344" stop-color="#0B457B"/>
<stop offset="0.53125" stop-color="#0B467C"/>
<stop offset="0.535156" stop-color="#0B467D"/>
<stop offset="0.539062" stop-color="#0B477E"/>
<stop offset="0.542969" stop-color="#0B477E"/>
<stop offset="0.546875" stop-color="#0B487F"/>
<stop offset="0.550781" stop-color="#0B4980"/>
<stop offset="0.554688" stop-color="#0B4981"/>
<stop offset="0.558594" stop-color="#0B4A82"/>
<stop offset="0.5625" stop-color="#0B4B83"/>
<stop offset="0.566406" stop-color="#0B4B83"/>
<stop offset="0.570312" stop-color="#0B4C84"/>
<stop offset="0.574219" stop-color="#0B4D85"/>
<stop offset="0.578125" stop-color="#0B4D86"/>
<stop offset="0.582031" stop-color="#0B4E87"/>
<stop offset="0.585937" stop-color="#0B4F87"/>
<stop offset="0.589844" stop-color="#0B4F88"/>
<stop offset="0.59375" stop-color="#0B5089"/>
<stop offset="0.597656" stop-color="#0B508A"/>
<stop offset="0.601562" stop-color="#0B518B"/>
<stop offset="0.605469" stop-color="#0A528B"/>
<stop offset="0.609375" stop-color="#0A528C"/>
<stop offset="0.613281" stop-color="#0A538D"/>
<stop offset="0.617187" stop-color="#0A548E"/>
<stop offset="0.621094" stop-color="#0A548F"/>
<stop offset="0.625" stop-color="#0A558F"/>
<stop offset="0.628906" stop-color="#0A5690"/>
<stop offset="0.632812" stop-color="#0A5691"/>
<stop offset="0.636719" stop-color="#0A5792"/>
<stop offset="0.640625" stop-color="#0A5793"/>
<stop offset="0.644531" stop-color="#0A5894"/>
<stop offset="0.648437" stop-color="#0A5994"/>
<stop offset="0.652344" stop-color="#0A5995"/>
<stop offset="0.65625" stop-color="#0A5A96"/>
<stop offset="0.660156" stop-color="#0A5995"/>
<stop offset="0.664062" stop-color="#0A5994"/>
<stop offset="0.667969" stop-color="#0A5894"/>
<stop offset="0.671875" stop-color="#0A5793"/>
<stop offset="0.675781" stop-color="#0A5792"/>
<stop offset="0.679687" stop-color="#0A5691"/>
<stop offset="0.683594" stop-color="#0A5690"/>
<stop offset="0.6875" stop-color="#0A5590"/>
<stop offset="0.691406" stop-color="#0A548F"/>
<stop offset="0.695312" stop-color="#0A548E"/>
<stop offset="0.699219" stop-color="#0A538D"/>
<stop offset="0.703125" stop-color="#0A528C"/>
<stop offset="0.707031" stop-color="#0A528C"/>
<stop offset="0.710938" stop-color="#0A518B"/>
<stop offset="0.714844" stop-color="#0B518A"/>
<stop offset="0.71875" stop-color="#0B5089"/>
<stop offset="0.722656" stop-color="#0B4F88"/>
<stop offset="0.726562" stop-color="#0B4F88"/>
<stop offset="0.730469" stop-color="#0B4E87"/>
<stop offset="0.734375" stop-color="#0B4D86"/>
<stop offset="0.738281" stop-color="#0B4D85"/>
<stop offset="0.742188" stop-color="#0B4C84"/>
<stop offset="0.746094" stop-color="#0B4C84"/>
<stop offset="0.75" stop-color="#0B4B83"/>
<stop offset="0.753906" stop-color="#0B4A82"/>
<stop offset="0.757812" stop-color="#0B4A81"/>
<stop offset="0.761719" stop-color="#0B4980"/>
<stop offset="0.765625" stop-color="#0B4880"/>
<stop offset="0.769531" stop-color="#0B487F"/>
<stop offset="0.773438" stop-color="#0B477E"/>
<stop offset="0.777344" stop-color="#0B477D"/>
<stop offset="0.78125" stop-color="#0B467C"/>
<stop offset="0.785156" stop-color="#0B457C"/>
<stop offset="0.789062" stop-color="#0B457B"/>
<stop offset="0.792969" stop-color="#0B447A"/>
<stop offset="0.796875" stop-color="#0B4379"/>
<stop offset="0.800781" stop-color="#0B4379"/>
<stop offset="0.804688" stop-color="#0B4278"/>
<stop offset="0.808594" stop-color="#0B4277"/>
<stop offset="0.8125" stop-color="#0C4176"/>
<stop offset="0.816406" stop-color="#0C4075"/>
<stop offset="0.820313" stop-color="#0C4075"/>
<stop offset="0.824219" stop-color="#0C3F74"/>
<stop offset="0.828125" stop-color="#0C3E73"/>
<stop offset="0.832031" stop-color="#0C3E72"/>
<stop offset="0.835938" stop-color="#0C3D71"/>
<stop offset="0.839844" stop-color="#0C3D71"/>
<stop offset="0.84375" stop-color="#0C3C70"/>
<stop offset="0.847656" stop-color="#0C3B6F"/>
<stop offset="0.851563" stop-color="#0C3B6E"/>
<stop offset="0.855469" stop-color="#0C3A6D"/>
<stop offset="0.859375" stop-color="#0C396D"/>
<stop offset="0.863281" stop-color="#0C396C"/>
<stop offset="0.867188" stop-color="#0C386B"/>
<stop offset="0.871094" stop-color="#0C376A"/>
<stop offset="0.875" stop-color="#0C3769"/>
<stop offset="0.878906" stop-color="#0C3669"/>
<stop offset="0.882813" stop-color="#0C3668"/>
<stop offset="0.886719" stop-color="#0C3567"/>
<stop offset="0.890625" stop-color="#0C3466"/>
<stop offset="0.894531" stop-color="#0C3465"/>
<stop offset="0.898438" stop-color="#0C3365"/>
<stop offset="0.902344" stop-color="#0C3264"/>
<stop offset="0.90625" stop-color="#0C3263"/>
<stop offset="0.910156" stop-color="#0C3162"/>
<stop offset="0.914063" stop-color="#0D3162"/>
<stop offset="0.917969" stop-color="#0D3061"/>
<stop offset="0.921875" stop-color="#0D2F60"/>
<stop offset="0.925781" stop-color="#0D2F5F"/>
<stop offset="0.929688" stop-color="#0D2E5E"/>
<stop offset="0.933594" stop-color="#0D2D5E"/>
<stop offset="0.9375" stop-color="#0D2D5D"/>
<stop offset="0.941406" stop-color="#0D2C5C"/>
<stop offset="0.945312" stop-color="#0D2C5B"/>
<stop offset="0.949219" stop-color="#0D2B5A"/>
<stop offset="0.953125" stop-color="#0D2A5A"/>
<stop offset="0.957031" stop-color="#0D2A59"/>
<stop offset="0.960938" stop-color="#0D2958"/>
<stop offset="0.96875" stop-color="#0D2958"/>
<stop offset="1" stop-color="#0D2958"/>
</linearGradient>
</defs>
</svg>
