<svg width="24" height="24" viewBox="0 0 24 24" fill="none" xmlns="http://www.w3.org/2000/svg">
<path d="M9.99999 3.20001C8.4357 3.56265 6.99691 4.33721 5.83287 5.44335C4.66883 6.54949 3.82194 7.94692 3.38002 9.49069C2.93811 11.0345 2.91728 12.6684 3.31968 14.2229C3.72209 15.7774 4.53308 17.196 5.66854 18.3315C6.804 19.4669 8.22257 20.2779 9.77711 20.6803C11.3316 21.0827 12.9655 21.0619 14.5093 20.62C16.0531 20.1781 17.4505 19.3312 18.5567 18.1671C19.6628 17.0031 20.4374 15.5643 20.8 14C20.8 13.7348 20.6946 13.4804 20.5071 13.2929C20.3196 13.1054 20.0652 13 19.8 13H13C12.4696 13 11.9609 12.7893 11.5858 12.4142C11.2107 12.0392 11 11.5304 11 11V4.00001C10.9876 3.88154 10.9517 3.76671 10.8946 3.66218C10.8375 3.55766 10.7601 3.46551 10.6671 3.3911C10.5741 3.31668 10.4672 3.26147 10.3527 3.22867C10.2382 3.19587 10.1183 3.18613 9.99999 3.20001Z" stroke="#94A3B8" stroke-width="2" stroke-linecap="round" stroke-linejoin="round"/>
<path d="M15 3.5C16.2697 3.94708 17.423 4.6733 18.3748 5.62516C19.3267 6.57702 20.0529 7.73028 20.5 9H16C15.7348 9 15.4804 8.89464 15.2929 8.70711C15.1054 8.51957 15 8.26522 15 8V3.5Z" stroke="#94A3B8" stroke-width="2" stroke-linecap="round" stroke-linejoin="round"/>
</svg>
