<svg width="24" height="24" viewBox="0 0 24 24" fill="none" xmlns="http://www.w3.org/2000/svg">
<g clip-path="url(#clip0_13_1316)">
<path d="M9.88299 2.207C10.3587 2.15095 10.8379 2.2766 11.2249 2.55881C11.6119 2.84102 11.878 3.25897 11.97 3.729L11.995 3.896L12 4V11C12 11.2449 12.0899 11.4813 12.2527 11.6644C12.4155 11.8474 12.6397 11.9643 12.883 11.993L13 12H19.8C20.3304 12 20.8391 12.2107 21.2142 12.5858C21.5893 12.9609 21.8 13.4696 21.8 14C21.7999 14.0761 21.7912 14.1519 21.774 14.226C21.3738 15.9527 20.5219 17.5419 19.3055 18.8311C18.0891 20.1202 16.5519 21.0629 14.8513 21.5625C13.1508 22.0622 11.348 22.1009 9.62757 21.6747C7.90715 21.2485 6.33092 20.3727 5.06029 19.137C3.78967 17.9012 2.87031 16.35 2.39636 14.6421C1.92242 12.9342 1.91092 11.131 2.36305 9.41725C2.81517 7.70345 3.71468 6.14062 4.96944 4.88879C6.22421 3.63696 7.78914 2.74112 9.50399 2.293L9.77399 2.226L9.88299 2.207Z" fill="#1E293B"/>
<path d="M14 3.5V9C14 9.26521 14.1054 9.51957 14.2929 9.7071C14.4804 9.89464 14.7348 10 15 10H20.5C20.6598 9.99995 20.8173 9.96159 20.9593 9.88814C21.1013 9.81468 21.2235 9.70826 21.3159 9.57781C21.4082 9.44736 21.468 9.29666 21.4901 9.13836C21.5122 8.98006 21.4961 8.81877 21.443 8.668C20.9463 7.25733 20.1396 5.97603 19.0822 4.91843C18.0248 3.86084 16.7436 3.05389 15.333 2.557C15.1822 2.50373 15.0208 2.48742 14.8623 2.50945C14.7039 2.53147 14.5531 2.59117 14.4225 2.68355C14.2919 2.77593 14.1854 2.89829 14.1119 3.04035C14.0383 3.18241 14 3.34004 14 3.5Z" fill="#1E293B"/>
</g>
<defs>
<clipPath id="clip0_13_1316">
<rect width="24" height="24" fill="white"/>
</clipPath>
</defs>
</svg>
