<svg width="12" height="12" viewBox="0 0 12 12" fill="none" xmlns="http://www.w3.org/2000/svg">
<path d="M5.99992 7.16665L1.91659 11.25C1.76381 11.4028 1.56936 11.4791 1.33325 11.4791C1.09714 11.4791 0.902696 11.4028 0.749919 11.25C0.597141 11.0972 0.520752 10.9028 0.520752 10.6666C0.520752 10.4305 0.597141 10.2361 0.749919 10.0833L4.83325 5.99998L0.749919 1.91665C0.597141 1.76387 0.520752 1.56942 0.520752 1.33331C0.520752 1.0972 0.597141 0.902757 0.749919 0.74998C0.902696 0.597202 1.09714 0.520813 1.33325 0.520813C1.56936 0.520813 1.76381 0.597202 1.91659 0.74998L5.99992 4.83331L10.0833 0.74998C10.236 0.597202 10.4305 0.520813 10.6666 0.520813C10.9027 0.520813 11.0971 0.597202 11.2499 0.74998C11.4027 0.902757 11.4791 1.0972 11.4791 1.33331C11.4791 1.56942 11.4027 1.76387 11.2499 1.91665L7.16659 5.99998L11.2499 10.0833C11.4027 10.2361 11.4791 10.4305 11.4791 10.6666C11.4791 10.9028 11.4027 11.0972 11.2499 11.25C11.0971 11.4028 10.9027 11.4791 10.6666 11.4791C10.4305 11.4791 10.236 11.4028 10.0833 11.25L5.99992 7.16665Z" fill="#1E293B"/>
</svg>

