<svg width="21" height="20" viewBox="0 0 21 20" fill="none" xmlns="http://www.w3.org/2000/svg">
<path d="M15.083 15.75V10.25C15.083 9.03446 14.6001 7.86868 13.7406 7.00913C12.881 6.14959 11.7152 5.66671 10.4997 5.66671C9.2841 5.66671 8.11831 6.14959 7.25877 7.00913C6.39923 7.86868 5.91634 9.03446 5.91634 10.25V15.75M15.083 15.75H5.91634M15.083 15.75C15.5692 15.75 16.0356 15.9432 16.3794 16.287C16.7232 16.6308 16.9163 17.0971 16.9163 17.5834V19.4167H4.08301V17.5834C4.08301 17.0971 4.27616 16.6308 4.61998 16.287C4.9638 15.9432 5.43011 15.75 5.91634 15.75M18.7497 10.25H19.6663M16.458 3.37504L15.9997 3.83337M1.33301 10.25H2.24967M10.4997 1.08337V2.00004M4.01792 3.76829L4.66601 4.41637M10.4997 10.25V15.75" stroke="#18181B" stroke-linecap="round" stroke-linejoin="round"/>
</svg>
