<svg width="20" height="20" viewBox="0 0 20 19" fill="none" xmlns="http://www.w3.org/2000/svg">
<path d="M10 18.325C9.76667 18.325 9.52917 18.2834 9.2875 18.2C9.04583 18.1167 8.83333 17.9834 8.65 17.8L6.925 16.225C5.15833 14.6084 3.5625 13.0042 2.1375 11.4125C0.7125 9.82086 0 8.06669 0 6.15002C0 4.58336 0.525 3.27502 1.575 2.22502C2.625 1.17502 3.93333 0.650024 5.5 0.650024C6.38333 0.650024 7.21667 0.837524 8 1.21252C8.78333 1.58752 9.45 2.10002 10 2.75002C10.55 2.10002 11.2167 1.58752 12 1.21252C12.7833 0.837524 13.6167 0.650024 14.5 0.650024C16.0667 0.650024 17.375 1.17502 18.425 2.22502C19.475 3.27502 20 4.58336 20 6.15002C20 8.06669 19.2917 9.82502 17.875 11.425C16.4583 13.025 14.85 14.6334 13.05 16.25L11.35 17.8C11.1667 17.9834 10.9542 18.1167 10.7125 18.2C10.4708 18.2834 10.2333 18.325 10 18.325Z" fill="#EF4444"/>
</svg>
