<svg width="32" height="32" viewBox="0 0 32 32" fill="none" xmlns="http://www.w3.org/2000/svg">
<path d="M11.3337 19.3333C12.2177 19.3333 13.0656 18.9821 13.6907 18.357C14.3158 17.7319 14.667 16.8841 14.667 16C14.667 14.16 14.0003 13.3333 13.3337 12C11.9043 9.14267 13.035 6.59467 16.0003 4C16.667 7.33333 18.667 10.5333 21.3337 12.6667C24.0003 14.8 25.3337 17.3333 25.3337 20C25.3337 21.2257 25.0922 22.4393 24.6232 23.5717C24.1542 24.7041 23.4667 25.733 22.6 26.5997C21.7333 27.4663 20.7044 28.1538 19.572 28.6229C18.4397 29.0919 17.226 29.3333 16.0003 29.3333C14.7747 29.3333 13.561 29.0919 12.4286 28.6229C11.2962 28.1538 10.2673 27.4663 9.40066 26.5997C8.53398 25.733 7.84649 24.7041 7.37745 23.5717C6.90841 22.4393 6.66699 21.2257 6.66699 20C6.66699 18.4627 7.24433 16.9413 8.00033 16C8.00033 16.8841 8.35152 17.7319 8.97664 18.357C9.60176 18.9821 10.4496 19.3333 11.3337 19.3333Z" stroke="#EF4444" stroke-width="2" stroke-linecap="round" stroke-linejoin="round"/>
</svg>
