<svg width="18" height="17" viewBox="0 0 18 17" fill="none" xmlns="http://www.w3.org/2000/svg">
<path d="M8.95829 13.4998C9.24996 13.4998 9.49649 13.3991 9.69788 13.1978C9.89927 12.9964 9.99996 12.7498 9.99996 12.4582C9.99996 12.1665 9.89927 11.92 9.69788 11.7186C9.49649 11.5172 9.24996 11.4165 8.95829 11.4165C8.66663 11.4165 8.4201 11.5172 8.21871 11.7186C8.01732 11.92 7.91663 12.1665 7.91663 12.4582C7.91663 12.7498 8.01732 12.9964 8.21871 13.1978C8.4201 13.3991 8.66663 13.4998 8.95829 13.4998ZM8.99996 16.8332C7.84718 16.8332 6.76385 16.6144 5.74996 16.1769C4.73607 15.7394 3.85413 15.1457 3.10413 14.3957C2.35413 13.6457 1.76038 12.7637 1.32288 11.7498C0.885376 10.7359 0.666626 9.65262 0.666626 8.49984C0.666626 7.34706 0.885376 6.26373 1.32288 5.24984C1.76038 4.23595 2.35413 3.354 3.10413 2.604C3.85413 1.854 4.73607 1.26025 5.74996 0.822754C6.76385 0.385254 7.84718 0.166504 8.99996 0.166504C10.1527 0.166504 11.2361 0.385254 12.25 0.822754C13.2638 1.26025 14.1458 1.854 14.8958 2.604C15.6458 3.354 16.2395 4.23595 16.677 5.24984C17.1145 6.26373 17.3333 7.34706 17.3333 8.49984C17.3333 9.65262 17.1145 10.7359 16.677 11.7498C16.2395 12.7637 15.6458 13.6457 14.8958 14.3957C14.1458 15.1457 13.2638 15.7394 12.25 16.1769C11.2361 16.6144 10.1527 16.8332 8.99996 16.8332ZM8.99996 15.1665C10.8611 15.1665 12.4375 14.5207 13.7291 13.229C15.0208 11.9373 15.6666 10.3609 15.6666 8.49984C15.6666 6.63873 15.0208 5.06234 13.7291 3.77067C12.4375 2.479 10.8611 1.83317 8.99996 1.83317C7.13885 1.83317 5.56246 2.479 4.27079 3.77067C2.97913 5.06234 2.33329 6.63873 2.33329 8.49984C2.33329 10.3609 2.97913 11.9373 4.27079 13.229C5.56246 14.5207 7.13885 15.1665 8.99996 15.1665ZM9.08329 4.9165C9.43052 4.9165 9.7326 5.02762 9.98954 5.24984C10.2465 5.47206 10.375 5.74984 10.375 6.08317C10.375 6.38873 10.2812 6.65956 10.0937 6.89567C9.90621 7.13178 9.6944 7.354 9.45829 7.56234C9.13885 7.84012 8.8576 8.14567 8.61454 8.479C8.37149 8.81234 8.24996 9.18734 8.24996 9.604C8.24996 9.79845 8.32288 9.96164 8.46871 10.0936C8.61454 10.2255 8.78468 10.2915 8.97913 10.2915C9.18746 10.2915 9.36454 10.2221 9.51038 10.0832C9.65621 9.94428 9.74996 9.77067 9.79163 9.56234C9.84718 9.27067 9.97218 9.01025 10.1666 8.78109C10.3611 8.55192 10.5694 8.33317 10.7916 8.12484C11.1111 7.81928 11.3854 7.48595 11.6145 7.12484C11.8437 6.76373 11.9583 6.36095 11.9583 5.9165C11.9583 5.20817 11.6701 4.62831 11.0937 4.17692C10.5173 3.72553 9.84718 3.49984 9.08329 3.49984C8.55552 3.49984 8.05204 3.61095 7.57288 3.83317C7.09371 4.05539 6.72913 4.39567 6.47913 4.854C6.3819 5.02067 6.35065 5.19775 6.38538 5.38525C6.4201 5.57275 6.51385 5.71512 6.66663 5.81234C6.86107 5.92345 7.06246 5.95817 7.27079 5.9165C7.47913 5.87484 7.65274 5.75678 7.79163 5.56234C7.9444 5.354 8.13538 5.19428 8.36454 5.08317C8.59371 4.97206 8.83329 4.9165 9.08329 4.9165Z" fill="#1E293B"/>
</svg>
