<svg width="18" height="18" viewBox="0 0 18 18" fill="none" xmlns="http://www.w3.org/2000/svg">
<path fill-rule="evenodd" clip-rule="evenodd" d="M8.30001 0.299987C8.48694 0.11676 8.73825 0.0141296 9.00001 0.0141296C9.26176 0.0141296 9.51308 0.11676 9.70001 0.299987L15.7 6.29999L17.7 8.29999C17.8444 8.49256 17.9146 8.73077 17.8975 8.97088C17.8804 9.21099 17.7773 9.43688 17.6071 9.60709C17.4369 9.7773 17.211 9.88041 16.9709 9.89747C16.7308 9.91453 16.4926 9.84442 16.3 9.69999L16 9.39999V16C16 16.5304 15.7893 17.0391 15.4142 17.4142C15.0391 17.7893 14.5304 18 14 18H11C10.7348 18 10.4804 17.8946 10.2929 17.7071C10.1054 17.5196 10 17.2652 10 17V14H8.00001V17C8.00001 17.6 7.60001 18 7.00001 18H4.00001C3.46957 18 2.96087 17.7893 2.58579 17.4142C2.21072 17.0391 2.00001 16.5304 2.00001 16V9.39999L1.70001 9.69999C1.50744 9.84442 1.26923 9.91453 1.02912 9.89747C0.789009 9.88041 0.563112 9.7773 0.392901 9.60709C0.22269 9.43688 0.119587 9.21099 0.102523 8.97088C0.0854592 8.73077 0.155578 8.49256 0.300007 8.29999L2.30001 6.29999L8.30001 0.299987Z" fill="#1E293B"/>
</svg>
