<svg width="18" height="17" viewBox="0 0 18 17" fill="none" xmlns="http://www.w3.org/2000/svg">
<path d="M9.00008 12.667C9.23619 12.667 9.43411 12.5871 9.59383 12.4274C9.75355 12.2677 9.83341 12.0698 9.83341 11.8337V8.50033C9.83341 8.26421 9.75355 8.0663 9.59383 7.90658C9.43411 7.74685 9.23619 7.66699 9.00008 7.66699C8.76397 7.66699 8.56605 7.74685 8.40633 7.90658C8.24661 8.0663 8.16675 8.26421 8.16675 8.50033V11.8337C8.16675 12.0698 8.24661 12.2677 8.40633 12.4274C8.56605 12.5871 8.76397 12.667 9.00008 12.667ZM9.00008 6.00033C9.23619 6.00033 9.43411 5.92046 9.59383 5.76074C9.75355 5.60102 9.83341 5.4031 9.83341 5.16699C9.83341 4.93088 9.75355 4.73296 9.59383 4.57324C9.43411 4.41352 9.23619 4.33366 9.00008 4.33366C8.76397 4.33366 8.56605 4.41352 8.40633 4.57324C8.24661 4.73296 8.16675 4.93088 8.16675 5.16699C8.16675 5.4031 8.24661 5.60102 8.40633 5.76074C8.56605 5.92046 8.76397 6.00033 9.00008 6.00033ZM9.00008 16.8337C7.8473 16.8337 6.76397 16.6149 5.75008 16.1774C4.73619 15.7399 3.85425 15.1462 3.10425 14.3962C2.35425 13.6462 1.7605 12.7642 1.323 11.7503C0.885498 10.7364 0.666748 9.6531 0.666748 8.50033C0.666748 7.34755 0.885498 6.26421 1.323 5.25033C1.7605 4.23644 2.35425 3.35449 3.10425 2.60449C3.85425 1.85449 4.73619 1.26074 5.75008 0.823242C6.76397 0.385742 7.8473 0.166992 9.00008 0.166992C10.1529 0.166992 11.2362 0.385742 12.2501 0.823242C13.264 1.26074 14.1459 1.85449 14.8959 2.60449C15.6459 3.35449 16.2397 4.23644 16.6772 5.25033C17.1147 6.26421 17.3334 7.34755 17.3334 8.50033C17.3334 9.6531 17.1147 10.7364 16.6772 11.7503C16.2397 12.7642 15.6459 13.6462 14.8959 14.3962C14.1459 15.1462 13.264 15.7399 12.2501 16.1774C11.2362 16.6149 10.1529 16.8337 9.00008 16.8337ZM9.00008 15.167C10.8612 15.167 12.4376 14.5212 13.7292 13.2295C15.0209 11.9378 15.6667 10.3614 15.6667 8.50033C15.6667 6.63921 15.0209 5.06283 13.7292 3.77116C12.4376 2.47949 10.8612 1.83366 9.00008 1.83366C7.13897 1.83366 5.56258 2.47949 4.27091 3.77116C2.97925 5.06283 2.33341 6.63921 2.33341 8.50033C2.33341 10.3614 2.97925 11.9378 4.27091 13.2295C5.56258 14.5212 7.13897 15.167 9.00008 15.167Z" fill="#1E293B"/>
</svg>
