<svg width="14" height="17" viewBox="0 0 14 17" fill="none" xmlns="http://www.w3.org/2000/svg">
<path d="M3.66671 8.49984V6.83317H10.3334V8.49984H3.66671ZM3.66671 5.1665V3.49984H10.3334V5.1665H3.66671ZM2.00004 10.1665H8.25004C8.65282 10.1665 9.02782 10.2533 9.37504 10.4269C9.72226 10.6005 10.0139 10.8471 10.25 11.1665L12 13.4582V1.83317H2.00004V10.1665ZM2.00004 15.1665H11.2084L8.93754 12.1873C8.85421 12.0762 8.75351 11.9894 8.63546 11.9269C8.5174 11.8644 8.38893 11.8332 8.25004 11.8332H2.00004V15.1665ZM12 16.8332H2.00004C1.54171 16.8332 1.14935 16.67 0.822957 16.3436C0.496568 16.0172 0.333374 15.6248 0.333374 15.1665V1.83317C0.333374 1.37484 0.496568 0.982476 0.822957 0.656087C1.14935 0.329698 1.54171 0.166504 2.00004 0.166504H12C12.4584 0.166504 12.8507 0.329698 13.1771 0.656087C13.5035 0.982476 13.6667 1.37484 13.6667 1.83317V15.1665C13.6667 15.6248 13.5035 16.0172 13.1771 16.3436C12.8507 16.67 12.4584 16.8332 12 16.8332Z" fill="#1E293B"/>
</svg>
