<svg xmlns="http://www.w3.org/2000/svg" xmlns:xlink="http://www.w3.org/1999/xlink" width="483" zoomAndPan="magnify" viewBox="0 0 362.25 66" height="88" preserveAspectRatio="xMidYMid meet" version="1.0"><defs><g/><clipPath id="b05260078f"><path d="M 217 15.671875 L 282 15.671875 L 282 48 L 217 48 Z M 217 15.671875 " clip-rule="nonzero"/></clipPath></defs><g clip-path="url(#b05260078f)"><path fill="#ffffff" d="M 265.5 15.847656 C 264.339844 15.839844 263.195312 15.960938 262.0625 16.203125 C 260.929688 16.445312 259.835938 16.804688 258.78125 17.289062 C 257.726562 17.769531 256.734375 18.359375 255.808594 19.058594 C 254.886719 19.753906 254.046875 20.542969 253.292969 21.425781 L 250.929688 24.148438 L 256.203125 30.242188 L 259.316406 26.652344 C 260.089844 25.75 261.015625 25.050781 262.097656 24.558594 C 263.179688 24.0625 264.3125 23.820312 265.5 23.828125 C 266.027344 23.820312 266.546875 23.867188 267.066406 23.960938 C 267.582031 24.058594 268.085938 24.207031 268.570312 24.402344 C 269.058594 24.597656 269.523438 24.839844 269.964844 25.128906 C 270.402344 25.417969 270.808594 25.746094 271.183594 26.117188 C 271.558594 26.484375 271.894531 26.886719 272.1875 27.324219 C 272.484375 27.757812 272.730469 28.21875 272.933594 28.703125 C 273.136719 29.191406 273.289062 29.691406 273.394531 30.207031 C 273.496094 30.722656 273.550781 31.242188 273.550781 31.769531 C 273.550781 32.292969 273.496094 32.816406 273.394531 33.332031 C 273.289062 33.847656 273.136719 34.347656 272.933594 34.832031 C 272.730469 35.316406 272.484375 35.777344 272.1875 36.210938 C 271.894531 36.648438 271.558594 37.050781 271.183594 37.421875 C 270.808594 37.789062 270.402344 38.117188 269.964844 38.40625 C 269.523438 38.695312 269.058594 38.9375 268.570312 39.132812 C 268.085938 39.332031 267.582031 39.476562 267.066406 39.574219 C 266.546875 39.667969 266.027344 39.714844 265.5 39.707031 C 264.316406 39.714844 263.183594 39.472656 262.109375 38.980469 C 261.03125 38.488281 260.105469 37.792969 259.335938 36.894531 C 247.78125 23.550781 253.269531 29.910156 245.929688 21.414062 C 245.175781 20.535156 244.335938 19.746094 243.410156 19.050781 C 242.484375 18.355469 241.496094 17.765625 240.441406 17.285156 C 239.386719 16.804688 238.292969 16.445312 237.160156 16.203125 C 236.027344 15.960938 234.882812 15.84375 233.722656 15.847656 C 233.199219 15.847656 232.675781 15.867188 232.15625 15.914062 C 231.632812 15.964844 231.117188 16.039062 230.601562 16.136719 C 230.089844 16.234375 229.582031 16.359375 229.078125 16.507812 C 228.578125 16.660156 228.082031 16.832031 227.597656 17.03125 C 227.113281 17.226562 226.640625 17.449219 226.175781 17.695312 C 225.714844 17.9375 225.265625 18.207031 224.828125 18.496094 C 224.390625 18.785156 223.96875 19.09375 223.5625 19.421875 C 223.15625 19.753906 222.769531 20.105469 222.398438 20.472656 C 222.023438 20.84375 221.671875 21.230469 221.339844 21.632812 C 221.007812 22.035156 220.691406 22.457031 220.402344 22.890625 C 220.109375 23.324219 219.839844 23.773438 219.589844 24.234375 C 219.34375 24.695312 219.121094 25.167969 218.917969 25.652344 C 218.71875 26.132812 218.539062 26.625 218.386719 27.128906 C 218.234375 27.628906 218.105469 28.136719 218.003906 28.648438 C 217.902344 29.164062 217.824219 29.679688 217.773438 30.199219 C 217.722656 30.722656 217.695312 31.246094 217.695312 31.769531 C 217.695312 32.292969 217.722656 32.8125 217.773438 33.335938 C 217.824219 33.855469 217.902344 34.375 218.003906 34.886719 C 218.105469 35.398438 218.234375 35.90625 218.386719 36.410156 C 218.539062 36.910156 218.71875 37.402344 218.917969 37.886719 C 219.121094 38.367188 219.34375 38.839844 219.589844 39.300781 C 219.839844 39.761719 220.109375 40.210938 220.402344 40.644531 C 220.691406 41.082031 221.007812 41.5 221.339844 41.902344 C 221.671875 42.308594 222.023438 42.695312 222.398438 43.0625 C 222.769531 43.429688 223.15625 43.78125 223.5625 44.113281 C 223.96875 44.441406 224.390625 44.753906 224.828125 45.042969 C 225.265625 45.332031 225.714844 45.597656 226.175781 45.84375 C 226.640625 46.085938 227.113281 46.308594 227.597656 46.507812 C 228.082031 46.703125 228.578125 46.878906 229.078125 47.027344 C 229.582031 47.175781 230.089844 47.300781 230.601562 47.398438 C 231.117188 47.5 231.632812 47.570312 232.15625 47.621094 C 232.675781 47.667969 233.199219 47.691406 233.722656 47.6875 C 234.882812 47.695312 236.027344 47.578125 237.160156 47.332031 C 238.296875 47.089844 239.390625 46.730469 240.445312 46.246094 C 241.496094 45.765625 242.488281 45.175781 243.414062 44.480469 C 244.339844 43.78125 245.179688 42.992188 245.929688 42.109375 L 248.296875 39.386719 L 243.019531 33.292969 L 239.90625 36.882812 C 239.132812 37.785156 238.207031 38.484375 237.125 38.976562 C 236.046875 39.472656 234.910156 39.714844 233.722656 39.707031 C 233.199219 39.714844 232.675781 39.667969 232.160156 39.574219 C 231.640625 39.476562 231.140625 39.332031 230.652344 39.132812 C 230.164062 38.9375 229.699219 38.695312 229.261719 38.40625 C 228.820312 38.117188 228.414062 37.789062 228.039062 37.421875 C 227.664062 37.050781 227.332031 36.648438 227.035156 36.210938 C 226.742188 35.777344 226.492188 35.316406 226.289062 34.832031 C 226.085938 34.347656 225.933594 33.847656 225.832031 33.332031 C 225.726562 32.816406 225.675781 32.292969 225.675781 31.769531 C 225.675781 31.242188 225.726562 30.722656 225.832031 30.207031 C 225.933594 29.691406 226.085938 29.191406 226.289062 28.703125 C 226.492188 28.21875 226.742188 27.757812 227.035156 27.324219 C 227.332031 26.886719 227.664062 26.484375 228.039062 26.117188 C 228.414062 25.746094 228.820312 25.417969 229.261719 25.128906 C 229.699219 24.839844 230.164062 24.597656 230.652344 24.402344 C 231.140625 24.207031 231.640625 24.058594 232.160156 23.960938 C 232.675781 23.867188 233.199219 23.820312 233.722656 23.828125 C 234.90625 23.820312 236.039062 24.0625 237.117188 24.554688 C 238.191406 25.046875 239.117188 25.742188 239.886719 26.640625 C 251.441406 39.984375 245.953125 33.628906 253.292969 42.121094 C 253.722656 42.632812 254.183594 43.117188 254.675781 43.574219 C 255.167969 44.027344 255.683594 44.449219 256.230469 44.839844 C 256.773438 45.230469 257.339844 45.585938 257.929688 45.902344 C 258.519531 46.222656 259.125 46.503906 259.75 46.746094 C 260.375 46.988281 261.011719 47.191406 261.664062 47.351562 C 262.3125 47.515625 262.96875 47.636719 263.636719 47.714844 C 264.300781 47.796875 264.96875 47.832031 265.636719 47.828125 C 266.308594 47.824219 266.972656 47.777344 267.636719 47.691406 C 268.300781 47.601562 268.957031 47.472656 269.605469 47.304688 C 270.253906 47.132812 270.890625 46.921875 271.511719 46.671875 C 272.132812 46.421875 272.734375 46.132812 273.320312 45.808594 C 273.90625 45.484375 274.46875 45.121094 275.007812 44.722656 C 275.546875 44.328125 276.058594 43.898438 276.546875 43.4375 C 277.03125 42.976562 277.488281 42.488281 277.910156 41.96875 C 278.335938 41.449219 278.726562 40.90625 279.082031 40.339844 C 279.4375 39.773438 279.757812 39.183594 280.039062 38.578125 C 280.320312 37.96875 280.566406 37.347656 280.769531 36.710938 C 280.972656 36.070312 281.136719 35.421875 281.257812 34.765625 C 281.382812 34.105469 281.460938 33.441406 281.5 32.773438 C 281.539062 32.105469 281.539062 31.4375 281.492188 30.769531 C 281.449219 30.101562 281.363281 29.4375 281.234375 28.78125 C 281.105469 28.121094 280.9375 27.476562 280.726562 26.839844 C 280.515625 26.203125 280.269531 25.582031 279.980469 24.976562 C 279.695312 24.371094 279.371094 23.789062 279.007812 23.222656 C 278.648438 22.660156 278.253906 22.117188 277.824219 21.605469 C 277.394531 21.089844 276.9375 20.605469 276.445312 20.148438 C 275.957031 19.691406 275.441406 19.265625 274.898438 18.875 C 274.355469 18.480469 273.789062 18.125 273.199219 17.804688 C 272.613281 17.484375 272.007812 17.199219 271.382812 16.957031 C 270.757812 16.710938 270.121094 16.503906 269.472656 16.339844 C 268.824219 16.175781 268.167969 16.050781 267.503906 15.96875 C 266.835938 15.886719 266.171875 15.847656 265.5 15.847656 Z M 265.5 15.847656 " fill-opacity="1" fill-rule="nonzero"/></g><g fill="#fcfcfc" fill-opacity="1"><g transform="translate(-1.162137, 47.646554)"><g><path d="M 19.0625 0.8125 C 15.65625 0.8125 12.71875 0.25 10.25 -0.875 C 7.789062 -2 5.894531 -3.597656 4.5625 -5.671875 C 3.226562 -7.742188 2.5625 -10.171875 2.5625 -12.953125 L 11.625 -12.953125 C 11.625 -11.015625 12.289062 -9.503906 13.625 -8.421875 C 14.957031 -7.335938 16.75 -6.796875 19 -6.796875 C 20.9375 -6.796875 22.46875 -7.171875 23.59375 -7.921875 C 24.71875 -8.679688 25.28125 -9.738281 25.28125 -11.09375 C 25.28125 -12.53125 24.597656 -13.691406 23.234375 -14.578125 C 21.878906 -15.472656 19.769531 -16.234375 16.90625 -16.859375 C 12.144531 -17.859375 8.617188 -19.382812 6.328125 -21.4375 C 4.046875 -23.488281 2.90625 -26.164062 2.90625 -29.46875 C 2.90625 -33.1875 4.257812 -36.117188 6.96875 -38.265625 C 9.6875 -40.410156 13.390625 -41.484375 18.078125 -41.484375 C 21.285156 -41.484375 24.070312 -40.929688 26.4375 -39.828125 C 28.800781 -38.722656 30.628906 -37.171875 31.921875 -35.171875 C 33.222656 -33.179688 33.875 -30.8125 33.875 -28.0625 L 24.984375 -28.0625 C 24.984375 -29.882812 24.382812 -31.316406 23.1875 -32.359375 C 21.988281 -33.410156 20.320312 -33.9375 18.1875 -33.9375 C 16.25 -33.9375 14.71875 -33.554688 13.59375 -32.796875 C 12.46875 -32.046875 11.90625 -30.992188 11.90625 -29.640625 C 11.90625 -28.398438 12.523438 -27.351562 13.765625 -26.5 C 15.003906 -25.644531 17.175781 -24.847656 20.28125 -24.109375 C 25.351562 -22.910156 29.015625 -21.300781 31.265625 -19.28125 C 33.515625 -17.269531 34.640625 -14.660156 34.640625 -11.453125 C 34.640625 -7.609375 33.253906 -4.601562 30.484375 -2.4375 C 27.710938 -0.269531 23.90625 0.8125 19.0625 0.8125 Z M 19.0625 0.8125 "/></g></g></g><g fill="#fcfcfc" fill-opacity="1"><g transform="translate(36.07654, 47.646554)"><g><path d="M 4.53125 11.625 L 4.53125 4.015625 L 8.015625 4.015625 C 9.835938 4.015625 11.144531 3.734375 11.9375 3.171875 C 12.726562 2.609375 13.378906 1.570312 13.890625 0.0625 L 14.234375 -0.984375 L 0.515625 -30.5 L 10.28125 -30.5 L 18.484375 -11.625 L 21.265625 -19.40625 L 25.328125 -30.5 L 34.8125 -30.5 L 21.203125 3.609375 C 20.390625 5.691406 19.460938 7.316406 18.421875 8.484375 C 17.378906 9.648438 16.082031 10.460938 14.53125 10.921875 C 12.976562 11.390625 11.019531 11.625 8.65625 11.625 Z M 4.53125 11.625 "/></g></g></g><g fill="#fcfcfc" fill-opacity="1"><g transform="translate(71.339999, 47.646554)"><g><path d="M 4.421875 0 L 4.421875 -30.5 L 10.984375 -30.5 L 11.90625 -27.078125 C 13.144531 -28.515625 14.644531 -29.582031 16.40625 -30.28125 C 18.175781 -30.976562 20.066406 -31.328125 22.078125 -31.328125 C 26.066406 -31.328125 29.191406 -30.085938 31.453125 -27.609375 C 33.722656 -25.128906 34.859375 -21.773438 34.859375 -17.546875 L 34.859375 0 L 26.03125 0 L 26.03125 -16.625 C 26.03125 -18.863281 25.5 -20.613281 24.4375 -21.875 C 23.375 -23.132812 21.890625 -23.765625 19.984375 -23.765625 C 17.972656 -23.765625 16.347656 -23.066406 15.109375 -21.671875 C 13.867188 -20.273438 13.25 -18.378906 13.25 -15.984375 L 13.25 0 Z M 4.421875 0 "/></g></g></g><g fill="#fcfcfc" fill-opacity="1"><g transform="translate(110.031039, 47.646554)"><g><path d="M 18.9375 0.8125 C 15.6875 0.8125 12.800781 0.125 10.28125 -1.25 C 7.769531 -2.625 5.804688 -4.519531 4.390625 -6.9375 C 2.972656 -9.363281 2.265625 -12.144531 2.265625 -15.28125 C 2.265625 -18.414062 2.972656 -21.179688 4.390625 -23.578125 C 5.804688 -25.984375 7.769531 -27.875 10.28125 -29.25 C 12.800781 -30.632812 15.6875 -31.328125 18.9375 -31.328125 C 21.769531 -31.328125 24.335938 -30.8125 26.640625 -29.78125 C 28.941406 -28.75 30.847656 -27.296875 32.359375 -25.421875 C 33.878906 -23.546875 34.867188 -21.347656 35.328125 -18.828125 L 26.84375 -18.828125 C 26.113281 -20.378906 25.066406 -21.585938 23.703125 -22.453125 C 22.347656 -23.328125 20.800781 -23.765625 19.0625 -23.765625 C 16.695312 -23.765625 14.757812 -22.976562 13.25 -21.40625 C 11.738281 -19.84375 10.984375 -17.800781 10.984375 -15.28125 C 10.984375 -12.800781 11.738281 -10.765625 13.25 -9.171875 C 14.757812 -7.585938 16.695312 -6.796875 19.0625 -6.796875 C 20.914062 -6.796875 22.550781 -7.289062 23.96875 -8.28125 C 25.382812 -9.269531 26.398438 -10.597656 27.015625 -12.265625 L 35.625 -12.265625 C 35.082031 -9.585938 34.046875 -7.269531 32.515625 -5.3125 C 30.984375 -3.351562 29.054688 -1.84375 26.734375 -0.78125 C 24.410156 0.28125 21.8125 0.8125 18.9375 0.8125 Z M 18.9375 0.8125 "/></g></g></g><g fill="#fcfcfc" fill-opacity="1"><g transform="translate(147.792561, 47.646554)"><g><path d="M 4.421875 0 L 4.421875 -43 L 13.25 -43 L 13.25 -28.1875 C 14.414062 -29.226562 15.769531 -30.007812 17.3125 -30.53125 C 18.863281 -31.0625 20.492188 -31.328125 22.203125 -31.328125 C 26.148438 -31.328125 29.242188 -30.101562 31.484375 -27.65625 C 33.734375 -25.21875 34.859375 -21.867188 34.859375 -17.609375 L 34.859375 0 L 26.03125 0 L 26.03125 -16.734375 C 26.03125 -18.984375 25.5 -20.71875 24.4375 -21.9375 C 23.375 -23.15625 21.890625 -23.765625 19.984375 -23.765625 C 17.972656 -23.765625 16.347656 -23.078125 15.109375 -21.703125 C 13.867188 -20.328125 13.25 -18.4375 13.25 -16.03125 L 13.25 0 Z M 4.421875 0 "/></g></g></g><g fill="#fcfcfc" fill-opacity="1"><g transform="translate(186.483601, 47.646554)"><g><path d="M 4.421875 0 L 4.421875 -30.5 L 10.984375 -30.5 L 12.140625 -26.4375 C 13.148438 -27.875 14.390625 -28.910156 15.859375 -29.546875 C 17.335938 -30.179688 19.195312 -30.5 21.4375 -30.5 L 24.75 -30.5 L 24.75 -22.484375 L 21.390625 -22.484375 C 18.867188 -22.484375 16.878906 -21.804688 15.421875 -20.453125 C 13.972656 -19.097656 13.25 -16.773438 13.25 -13.484375 L 13.25 0 Z M 4.421875 0 "/></g></g></g><g fill="#fcfcfc" fill-opacity="1"><g transform="translate(285.092031, 47.646554)"><g><path d="M 4.421875 0 L 4.421875 -30.5 L 10.984375 -30.5 L 11.90625 -27.078125 C 13.144531 -28.515625 14.644531 -29.582031 16.40625 -30.28125 C 18.175781 -30.976562 20.066406 -31.328125 22.078125 -31.328125 C 26.066406 -31.328125 29.191406 -30.085938 31.453125 -27.609375 C 33.722656 -25.128906 34.859375 -21.773438 34.859375 -17.546875 L 34.859375 0 L 26.03125 0 L 26.03125 -16.625 C 26.03125 -18.863281 25.5 -20.613281 24.4375 -21.875 C 23.375 -23.132812 21.890625 -23.765625 19.984375 -23.765625 C 17.972656 -23.765625 16.347656 -23.066406 15.109375 -21.671875 C 13.867188 -20.273438 13.25 -18.378906 13.25 -15.984375 L 13.25 0 Z M 4.421875 0 "/></g></g></g><g fill="#fcfcfc" fill-opacity="1"><g transform="translate(323.783071, 47.646554)"><g><path d="M 18.828125 0.8125 C 15.578125 0.8125 12.703125 0.132812 10.203125 -1.21875 C 7.703125 -2.570312 5.753906 -4.457031 4.359375 -6.875 C 2.960938 -9.300781 2.265625 -12.101562 2.265625 -15.28125 C 2.265625 -18.457031 2.972656 -21.242188 4.390625 -23.640625 C 5.804688 -26.046875 7.757812 -27.925781 10.25 -29.28125 C 12.75 -30.644531 15.644531 -31.328125 18.9375 -31.328125 C 22.425781 -31.328125 25.4375 -30.550781 27.96875 -29 C 30.507812 -27.445312 32.445312 -25.273438 33.78125 -22.484375 C 35.125 -19.691406 35.695312 -16.4375 35.5 -12.71875 L 11.046875 -12.71875 C 11.472656 -10.632812 12.398438 -9.039062 13.828125 -7.9375 C 15.265625 -6.832031 16.988281 -6.28125 19 -6.28125 C 20.46875 -6.28125 21.8125 -6.5625 23.03125 -7.125 C 24.257812 -7.6875 25.238281 -8.46875 25.96875 -9.46875 L 34.921875 -9.46875 C 33.609375 -6.257812 31.535156 -3.742188 28.703125 -1.921875 C 25.878906 -0.0976562 22.585938 0.8125 18.828125 0.8125 Z M 11.09375 -18.296875 L 26.96875 -18.296875 C 26.457031 -20.160156 25.515625 -21.625 24.140625 -22.6875 C 22.765625 -23.757812 21.050781 -24.296875 19 -24.296875 C 17.0625 -24.296875 15.382812 -23.757812 13.96875 -22.6875 C 12.5625 -21.625 11.601562 -20.160156 11.09375 -18.296875 Z M 11.09375 -18.296875 "/></g></g></g></svg>