<svg width="160" height="160" viewBox="0 0 160 160" fill="none" xmlns="http://www.w3.org/2000/svg">
<mask id="mask0_12_1008" style="mask-type:luminance" maskUnits="userSpaceOnUse" x="35" y="12" width="90" height="136">
<path d="M35.4584 12.505H124.418V147.545H35.4584V12.505Z" fill="white"/>
</mask>
<g mask="url(#mask0_12_1008)">
<mask id="mask1_12_1008" style="mask-type:luminance" maskUnits="userSpaceOnUse" x="35" y="12" width="90" height="136">
<path d="M50.3117 78.5933C50.8484 79.35 51.3701 80.145 52.0167 81.1317C54.6401 85.1267 59.3051 92.2317 63.3751 95.965C65.2751 97.71 65.7917 98.6883 65.8467 98.5517C66.7601 96.1317 66.4801 91.0483 65.9317 86.0733C65.5117 82.285 64.9151 78.5183 64.3101 74.72C63.1684 67.5333 62.0101 60.2417 61.9551 53.245C59.9151 53.8833 57.9034 54.6133 56.0384 55.485C53.5434 56.6517 51.2917 58.075 49.6034 59.8767C47.2401 62.4067 46.2834 65.2167 46.3284 68.0333C46.3834 71.5767 47.9534 75.2733 50.3117 78.5967V78.5933ZM45.1967 85.5933C44.4767 84.4983 43.8967 83.615 43.6817 83.31C40.4434 78.745 38.2851 73.4633 38.2034 68.125C38.1267 63.295 39.7151 58.5333 43.6451 54.3283C46.1134 51.6917 49.2217 49.6933 52.5967 48.1183C55.7934 46.6283 59.1867 45.5267 62.4651 44.6117L62.5567 44.5883C63.8517 36.5083 67.4467 29.095 75.3201 23.04C77.0617 21.6983 78.9167 20.4417 80.8317 19.3067C86.9367 15.6917 93.9718 13.0967 100.542 12.665C107.72 12.195 114.347 14.2333 118.865 20.1083C119.378 20.775 119.848 21.465 120.268 22.175L120.442 22.4667C122.18 25.4017 123.577 27.7533 124.162 30.1217C125.607 35.9583 123.178 39.4517 112.818 42.0167C110.153 42.6783 105.602 43.5683 100.025 44.6617C91.2034 46.3883 79.8184 48.6167 70.2201 50.9933C69.9101 58.12 71.1367 65.8483 72.3417 73.445C72.9801 77.4583 73.6134 81.4417 74.0267 85.18C74.6884 91.1717 74.9317 97.5283 73.4618 101.423C71.0284 107.873 66.3617 109.758 57.8634 101.96C53.0334 97.5283 48.0167 89.8917 45.2001 85.5967L45.1967 85.5933ZM80.2884 29.4783C75.6817 33.0233 72.9951 37.4 71.5617 42.2967C80.6284 40.1533 90.5634 38.2083 98.4551 36.6633C104.04 35.57 108.603 34.6783 110.87 34.1167C115.142 33.0567 116.368 32.525 116.255 32.0667C115.963 30.8917 114.835 28.9867 113.427 26.6117L113.253 26.3217C112.977 25.8533 112.698 25.44 112.425 25.0833C109.793 21.6617 105.653 20.4933 101.048 20.7933C95.8334 21.1333 90.0751 23.2983 84.9717 26.3183C83.2967 27.31 81.7217 28.3733 80.2884 29.4783ZM109.69 81.4083C109.368 80.955 108.758 80.0267 108.002 78.8733H107.987C105.365 74.8783 100.698 67.77 96.6284 64.0367C94.7284 62.29 94.2118 61.3133 94.1567 61.45C93.2434 63.8683 93.5234 68.9533 94.0718 73.9283C94.4917 77.7167 95.0901 81.4833 95.6934 85.28C96.8351 92.4683 97.9917 99.76 98.0451 106.757C100.085 106.118 102.098 105.387 103.962 104.517C106.457 103.35 108.71 101.927 110.397 100.123C112.762 97.595 113.718 94.79 113.672 91.9833V91.9683C113.617 88.425 112.048 84.7283 109.69 81.405V81.4083ZM114.795 74.4167C115.402 75.34 115.892 76.0833 116.318 76.69C119.555 81.2533 121.71 86.5283 121.798 91.8583C121.873 96.6967 120.287 101.465 116.355 105.67C113.888 108.307 110.78 110.305 107.403 111.88C104.21 113.37 100.812 114.472 97.5368 115.387L97.4451 115.41C96.1484 123.49 92.5551 130.903 84.6834 136.958C82.9417 138.3 81.0868 139.557 79.1717 140.692C73.0667 144.307 66.0284 146.902 59.4634 147.333C52.2834 147.803 45.6584 145.765 41.1417 139.89C40.6284 139.223 40.1584 138.533 39.7384 137.823L39.5651 137.532C37.8267 134.597 36.4301 132.245 35.8451 129.877C34.4001 124.04 36.8284 120.547 47.1884 117.982C49.8534 117.322 54.4051 116.43 59.9817 115.337C68.8034 113.61 80.1917 111.38 89.7868 109.005C90.0967 101.878 88.8701 94.15 87.6651 86.5533C87.0267 82.5367 86.3934 78.5567 85.9801 74.8183C85.3184 68.8267 85.0751 62.47 86.5451 58.5783C88.9784 52.1283 93.6451 50.2433 102.143 58.0417C106.973 62.4733 111.99 70.1133 114.807 74.405L114.795 74.4117V74.4167ZM79.7118 130.523C84.3201 126.978 87.0067 122.602 88.4384 117.708C79.3717 119.852 69.4334 121.797 61.5417 123.342C55.9567 124.435 51.3984 125.327 49.1301 125.888C44.8601 126.945 43.6334 127.478 43.7451 127.937C44.0367 129.112 45.1667 131.018 46.5751 133.395L46.7484 133.687C47.0234 134.153 47.3001 134.567 47.5767 134.925C50.2084 138.345 54.3484 139.515 58.9534 139.213C64.1684 138.872 69.9267 136.71 75.0284 133.687C76.7034 132.693 78.2801 131.632 79.7118 130.527V130.523Z" fill="white"/>
</mask>
<g mask="url(#mask1_12_1008)">
<path d="M35.4584 12.505V147.545H124.418V12.505H35.4584Z" />
</g>
</g>
</svg>
