<svg width="32" height="32" viewBox="0 0 32 32" fill="none" xmlns="http://www.w3.org/2000/svg">
<mask id="mask0_2013_1370" style="mask-type:luminance" maskUnits="userSpaceOnUse" x="1" y="20" width="6" height="8">
<path d="M1 20.875H6.90001V28H1V20.875Z" fill="white"/>
</mask>
<g mask="url(#mask0_2013_1370)">
<path d="M6.80645 22.8586C6.80645 22.282 6.51426 21.7336 6.00723 21.4167C5.84786 21.317 5.6752 21.2441 5.49707 21.2069C5.12051 21.1324 4.60879 21.0595 3.90957 21.058C3.20957 21.0588 2.69785 21.1324 2.32129 21.2069C2.14473 21.2441 1.97129 21.3177 1.81191 21.4167C1.30488 21.7336 1.0127 22.282 1.0127 22.8586V26.2031C1.0127 26.7798 1.30488 27.3289 1.81191 27.6451C1.97129 27.7448 2.14395 27.8177 2.32129 27.8549C2.69785 27.9301 3.21035 28.003 3.90957 28.0037C4.60879 28.003 5.12129 27.9301 5.49707 27.8549C5.67442 27.8177 5.84786 27.7441 6.00723 27.6451C6.51426 27.3289 6.80645 26.7798 6.80645 26.2031V22.8586Z" fill="black"/>
</g>
<mask id="mask1_2013_1370" style="mask-type:luminance" maskUnits="userSpaceOnUse" x="8" y="15" width="7" height="13">
<path d="M8.8999 15.3512H14.8999V28H8.8999V15.3512Z" fill="white"/>
</mask>
<g mask="url(#mask1_2013_1370)">
<path d="M9.07275 26.2031C9.07275 26.7798 9.36494 27.3289 9.87197 27.6451C10.0313 27.7448 10.204 27.8177 10.3821 27.8549C10.7587 27.9301 11.2704 28.003 11.9696 28.0037C12.6696 28.003 13.1814 27.9301 13.5579 27.8549C13.7345 27.8177 13.9079 27.7441 14.0673 27.6451C14.5743 27.3289 14.8665 26.7798 14.8665 26.2031V17.1734C14.8665 16.5967 14.5743 16.0476 14.0673 15.7314C13.9079 15.6317 13.7353 15.5588 13.5579 15.5216C13.1814 15.4464 12.6689 15.3743 11.9696 15.3728C11.2704 15.3735 10.7579 15.4464 10.3821 15.5216C10.2048 15.5588 10.0313 15.6324 9.87197 15.7314C9.36494 16.0476 9.07275 16.5967 9.07275 17.1734V26.2031Z" fill="black"/>
</g>
<mask id="mask2_2013_1370" style="mask-type:luminance" maskUnits="userSpaceOnUse" x="17" y="9" width="7" height="19">
<path d="M17.1001 9.6369H23.1001V28H17.1001V9.6369Z" fill="white"/>
</mask>
<g mask="url(#mask2_2013_1370)">
<path d="M22.9275 11.4881C22.9275 10.9115 22.6354 10.3624 22.1283 10.0461C21.9689 9.94644 21.7963 9.87352 21.6182 9.83558C21.2416 9.76117 20.7299 9.689 20.0307 9.68677C19.3307 9.68826 18.8189 9.76117 18.4424 9.83558C18.2658 9.87352 18.0924 9.94644 17.933 10.0461C17.426 10.3624 17.1338 10.9115 17.1338 11.4881V26.2031C17.1338 26.7798 17.426 27.3289 17.933 27.6451C18.0924 27.7448 18.265 27.8177 18.4424 27.8549C18.8189 27.9301 19.3314 28.003 20.0307 28.0037C20.7299 28.003 21.2424 27.9301 21.6182 27.8549C21.7955 27.8177 21.9689 27.7441 22.1283 27.6451C22.6354 27.3289 22.9275 26.7798 22.9275 26.2031V11.4881Z" fill="black"/>
</g>
<mask id="mask3_2013_1370" style="mask-type:luminance" maskUnits="userSpaceOnUse" x="25" y="4" width="6" height="24">
<path d="M25.1001 4H31.0001V28H25.1001V4Z" fill="white"/>
</mask>
<g mask="url(#mask3_2013_1370)">
<path d="M30.9876 5.80283C30.9876 5.2262 30.6954 4.67709 30.1884 4.36087C30.029 4.26042 29.8564 4.18751 29.679 4.1503C29.3024 4.0759 28.7899 4.00298 28.0907 4.0015C27.3915 4.00298 26.879 4.0759 26.5032 4.1503C26.3259 4.18751 26.1524 4.26117 25.9931 4.36087C25.486 4.67709 25.1938 5.2262 25.1938 5.80283V26.2031C25.1938 26.7798 25.486 27.3289 25.9931 27.6451C26.1524 27.7448 26.3251 27.8177 26.5032 27.8549C26.8798 27.9301 27.3915 28.003 28.0907 28.0037C28.7907 28.003 29.3024 27.9301 29.679 27.8549C29.8556 27.8177 30.029 27.7441 30.1884 27.6451C30.6954 27.3289 30.9876 26.7798 30.9876 26.2031V5.80283Z" fill="black"/>
</g>
</svg>
