<svg width="28" height="26" viewBox="0 0 28 26" fill="none" xmlns="http://www.w3.org/2000/svg">
<mask id="mask0_2024_1344" style="mask-type:luminance" maskUnits="userSpaceOnUse" x="0" y="0" width="28" height="26">
<path d="M0.5 0H27.5V26H0.5V0Z" fill="white"/>
</mask>
<g mask="url(#mask0_2024_1344)">
<path d="M27.0768 7.08423C27.0761 7.08423 27.0761 7.08423 27.0768 7.08423L20.1567 0.420506C19.6347 -0.0822117 18.7839 -0.082891 18.2618 0.420506L12.9178 5.56725L12.606 5.26697C12.4311 5.09782 12.1461 5.09782 11.9711 5.26697L6.94035 10.1107L14.1792 17.0815C14.3549 17.2507 14.3549 17.5244 14.1792 17.6929C14.0918 17.7778 13.9768 17.82 13.8618 17.82C13.7468 17.82 13.6318 17.7778 13.5443 17.6929L6.42676 10.839L4.31245 16.9477C4.25883 17.1026 4.30045 17.2744 4.42109 17.3899L5.3622 18.2962L4.2673 19.3505C4.05565 19.5537 3.93854 19.8254 3.93854 20.1134C3.93854 20.3261 4.00274 20.5292 4.12126 20.7031L0.646084 24.0496C0.561427 24.1304 0.51416 24.2405 0.51416 24.3553C0.51416 24.4701 0.561427 24.5802 0.646084 24.661L1.90465 25.873C1.99213 25.9572 2.10713 25.9993 2.22212 25.9993C2.33711 25.9993 2.4521 25.9572 2.53958 25.873L6.01406 22.5272C6.1996 22.6433 6.41265 22.7018 6.62641 22.7018C6.91354 22.7018 7.19996 22.5965 7.41936 22.3859L8.51426 21.3315L9.45466 22.2378C9.54003 22.32 9.65502 22.3641 9.77213 22.3641C9.8201 22.3641 9.86737 22.3566 9.91393 22.3424L16.2576 20.3064L14.8029 18.9056C14.6272 18.7364 14.6272 18.4626 14.8029 18.2935C14.9785 18.1243 15.2621 18.1243 15.4378 18.2935L17.0138 19.8111L22.0446 14.9674C22.2203 14.7982 22.2203 14.5244 22.0446 14.3553L21.7328 14.0557L27.0775 8.90896C27.5988 8.40624 27.5988 7.58695 27.0768 7.08423ZM6.78302 21.7744C6.69625 21.858 6.55516 21.858 6.46768 21.7744L4.90152 20.2663C4.84508 20.2113 4.83591 20.1474 4.83591 20.1141C4.83591 20.0808 4.84438 20.017 4.90081 19.9626L5.99571 18.9083L7.87722 20.7201L6.78302 21.7744ZM10.4035 19.5115C10.3161 19.5958 10.2011 19.6386 10.0861 19.6386C9.97107 19.6386 9.85608 19.5958 9.7686 19.5115L7.25146 17.0883C7.0758 16.9191 7.0758 16.6454 7.25146 16.4762C7.42642 16.3071 7.71143 16.3071 7.8871 16.4762L10.4035 18.9001C10.5792 19.0693 10.5792 19.3424 10.4035 19.5115ZM12.92 19.5115C12.8325 19.5958 12.7175 19.6386 12.6025 19.6386C12.4875 19.6386 12.3725 19.5958 12.285 19.5115L7.25146 14.6644C7.0758 14.4952 7.0758 14.2221 7.25146 14.053C7.42642 13.8838 7.71143 13.8838 7.8871 14.053L12.92 18.9001C13.0956 19.0693 13.0956 19.3424 12.92 19.5115ZM25.1804 6.48165L23.2989 8.29347L22.676 7.6936L24.5575 5.88178L25.1804 6.48165ZM22.0404 3.45855L22.2901 3.69836L22.664 4.05841L20.7825 5.87023L20.1589 5.27037L22.0404 3.45855ZM17.6333 10.7201L15.4308 12.841C15.0964 13.163 14.5136 13.163 14.1785 12.841C14.0113 12.6793 13.9196 12.466 13.9196 12.2378C13.9196 12.0102 14.0113 11.7962 14.1785 11.6352L16.381 9.51426L17.9507 8.00203L19.2029 9.20855L17.6333 10.7201ZM26.4411 8.29686L21.0964 13.4436L18.5856 11.0258L20.156 9.51426C20.2407 9.43273 20.288 9.32268 20.288 9.20855C20.288 9.09374 20.2407 8.98301 20.156 8.90216L18.2682 7.08423C18.0996 6.92254 17.8012 6.92254 17.6333 7.08423L16.0636 8.59646L13.5528 6.17934L18.8975 1.0326C19.0696 0.867517 19.3497 0.867517 19.5218 1.0326L20.1476 1.63518L17.9479 3.75271C17.8632 3.83355 17.816 3.9436 17.816 4.05841C17.816 4.17322 17.8632 4.28328 17.9479 4.36412L19.2065 5.57608L20.4643 6.78803L21.7229 7.99931L22.9815 9.21127C23.0661 9.29279 23.1797 9.3383 23.2989 9.3383C23.4182 9.3383 23.5324 9.29279 23.6164 9.21127L25.8161 7.09374L26.4411 7.69564C26.6133 7.86208 26.6133 8.13178 26.4411 8.29686Z" fill="black"/>
</g>
</svg>
