<svg width="26" height="29" viewBox="0 0 26 29" fill="none" xmlns="http://www.w3.org/2000/svg">
<path d="M17.0001 22.5V23.5C17.0001 24.5609 16.5786 25.5783 15.8285 26.3284C15.0783 27.0786 14.0609 27.5 13.0001 27.5C11.9392 27.5 10.9218 27.0786 10.1716 26.3284C9.42149 25.5783 9.00006 24.5609 9.00006 23.5V22.5M23.7301 20.4644C22.1251 18.5 20.9919 17.5 20.9919 12.0844C20.9919 7.125 18.4594 5.35812 16.3751 4.5C16.0982 4.38625 15.8376 4.125 15.7532 3.84062C15.3876 2.59625 14.3626 1.5 13.0001 1.5C11.6376 1.5 10.6119 2.59688 10.2501 3.84188C10.1657 4.12938 9.90507 4.38625 9.62819 4.5C7.54132 5.35938 5.01131 7.12 5.01131 12.0844C5.00819 17.5 3.87506 18.5 2.27006 20.4644C1.60506 21.2781 2.18756 22.5 3.35069 22.5H22.6557C23.8126 22.5 24.3913 21.2744 23.7301 20.4644Z" stroke="#0284C7" stroke-width="2" stroke-linecap="round" stroke-linejoin="round"/>
</svg>
