<svg width="20" height="12" viewBox="0 0 20 12" fill="none" xmlns="http://www.w3.org/2000/svg">
<path d="M1.7 11.575C1.16667 10.775 0.75 9.90417 0.45 8.9625C0.15 8.02083 0 7.03333 0 6C0 4.95 0.15 3.95833 0.45 3.025C0.75 2.09167 1.16667 1.225 1.7 0.425L3.375 1.525C2.94167 2.15833 2.60417 2.85417 2.3625 3.6125C2.12083 4.37083 2 5.16667 2 6C2 6.83333 2.12083 7.625 2.3625 8.375C2.60417 9.125 2.94167 9.81667 3.375 10.45L1.7 11.575ZM10 12C8.33333 12 6.91667 11.4167 5.75 10.25C4.58333 9.08333 4 7.66667 4 6C4 4.33333 4.58333 2.91667 5.75 1.75C6.91667 0.583333 8.33333 0 10 0C11.6667 0 13.0833 0.583333 14.25 1.75C15.4167 2.91667 16 4.33333 16 6C16 7.66667 15.4167 9.08333 14.25 10.25C13.0833 11.4167 11.6667 12 10 12ZM10 10C11.1 10 12.0417 9.60833 12.825 8.825C13.6083 8.04167 14 7.1 14 6C14 4.9 13.6083 3.95833 12.825 3.175C12.0417 2.39167 11.1 2 10 2C8.9 2 7.95833 2.39167 7.175 3.175C6.39167 3.95833 6 4.9 6 6C6 7.1 6.39167 8.04167 7.175 8.825C7.95833 9.60833 8.9 10 10 10ZM18.275 11.575L16.625 10.45C17.0583 9.81667 17.3958 9.125 17.6375 8.375C17.8792 7.625 18 6.83333 18 6C18 5.16667 17.8792 4.37083 17.6375 3.6125C17.3958 2.85417 17.0583 2.15833 16.625 1.525L18.275 0.425C18.8083 1.225 19.2292 2.09167 19.5375 3.025C19.8458 3.95833 20 4.95 20 6C20 7.03333 19.8458 8.02083 19.5375 8.9625C19.2292 9.90417 18.8083 10.775 18.275 11.575Z" />
</svg>
