<svg width="17" height="17" viewBox="0 0 17 17" fill="none" xmlns="http://www.w3.org/2000/svg">
<path d="M12.25 13V8.5C12.25 7.50544 11.8549 6.55161 11.1517 5.84835C10.4484 5.14509 9.49456 4.75 8.5 4.75C7.50544 4.75 6.55161 5.14509 5.84835 5.84835C5.14509 6.55161 4.75 7.50544 4.75 8.5V13M12.25 13H4.75M12.25 13C12.6478 13 13.0294 13.158 13.3107 13.4393C13.592 13.7206 13.75 14.1022 13.75 14.5V16H3.25V14.5C3.25 14.1022 3.40804 13.7206 3.68934 13.4393C3.97064 13.158 4.35218 13 4.75 13M15.25 8.5H16M13.375 2.875L13 3.25M1 8.5H1.75M8.5 1V1.75M3.19675 3.19675L3.727 3.727M8.5 8.5V13" stroke="#FAFAFA" stroke-linecap="round" stroke-linejoin="round"/>
</svg>
