<svg width="24" height="24" viewBox="0 0 24 24" fill="none" xmlns="http://www.w3.org/2000/svg">
<path d="M10.7195 23.16C13.6124 23.16 15.9626 20.8093 15.9626 17.9165C15.9626 16.3895 15.3301 15.0536 14.1343 13.9689C13.9136 13.7679 13.8635 13.6573 13.8635 13.356L13.8836 4.33588C13.8836 2.23674 12.6078 0.840454 10.7195 0.840454C8.82092 0.840454 7.54506 2.23674 7.54506 4.33588L7.55535 13.356C7.55535 13.6573 7.50521 13.7679 7.29392 13.9689C6.08878 15.0536 5.46606 16.3895 5.46606 17.916C5.46606 20.8089 7.80606 23.16 10.7195 23.16ZM10.7195 21.7025C8.63021 21.7025 6.93264 19.995 6.93264 17.916C6.93264 16.6603 7.52535 15.5255 8.58992 14.8123C8.90149 14.601 9.02192 14.4103 9.02192 13.9985V4.39631C9.02192 3.13074 9.71492 2.31688 10.7191 2.31688C11.7138 2.31688 12.3969 3.13074 12.3969 4.39631V13.9989C12.3969 14.4107 12.5174 14.6015 12.8289 14.8123C13.8935 15.5259 14.4862 16.6607 14.4862 17.9165C14.4862 19.9955 12.7985 21.7033 10.7191 21.7033M15.7513 4.52745H17.9413C18.0188 4.52929 18.0959 4.51554 18.168 4.48702C18.24 4.4585 18.3057 4.41579 18.3609 4.36143C18.4161 4.30706 18.4599 4.24215 18.4896 4.17054C18.5192 4.09894 18.5342 4.0221 18.5336 3.9446C18.5342 3.86705 18.5192 3.79018 18.4895 3.71855C18.4598 3.64691 18.416 3.58198 18.3608 3.52761C18.3055 3.47324 18.2398 3.43054 18.1677 3.40204C18.0956 3.37355 18.0184 3.35984 17.9409 3.36174H15.7509C15.6734 3.3599 15.5964 3.37365 15.5243 3.40217C15.4522 3.43069 15.3866 3.4734 15.3314 3.52777C15.2761 3.58213 15.2324 3.64705 15.2027 3.71865C15.173 3.79025 15.158 3.86709 15.1586 3.9446C15.1586 4.25617 15.3999 4.52745 15.7513 4.52745ZM15.7513 7.3496H17.9413C18.0188 7.35144 18.0958 7.3377 18.1679 7.30921C18.2399 7.28071 18.3055 7.23804 18.3607 7.18372C18.416 7.1294 18.4597 7.06454 18.4894 6.99298C18.5191 6.92143 18.5342 6.84464 18.5336 6.76717C18.5342 6.68962 18.5192 6.61275 18.4895 6.54112C18.4598 6.46949 18.416 6.40455 18.3608 6.35018C18.3055 6.29581 18.2398 6.25311 18.1677 6.22461C18.0956 6.19612 18.0184 6.18241 17.9409 6.18431H15.7509C15.6734 6.18247 15.5964 6.19622 15.5243 6.22474C15.4522 6.25326 15.3866 6.29597 15.3314 6.35034C15.2761 6.4047 15.2324 6.46962 15.2027 6.54122C15.173 6.61282 15.158 6.68966 15.1586 6.76717C15.1586 7.07874 15.3999 7.3496 15.7513 7.3496ZM10.7092 20.3477C11.0294 20.348 11.3464 20.285 11.6422 20.1623C11.9379 20.0396 12.2064 19.8596 12.4324 19.6328C12.6583 19.4059 12.8371 19.1366 12.9586 18.8403C13.08 18.5441 13.1417 18.2268 13.1401 17.9066C13.1401 16.9625 12.6078 16.1889 11.8342 15.7672C11.5128 15.5966 11.4022 15.4757 11.4022 14.9837V9.64974C11.4022 9.12688 11.1009 8.81574 10.7092 8.81574C10.3278 8.81574 10.0162 9.12731 10.0162 9.64974V14.9829C10.0162 15.4749 9.90564 15.5957 9.58421 15.7663C8.81106 16.188 8.27835 16.962 8.27835 17.9057C8.27671 18.2259 8.33839 18.5432 8.45985 18.8395C8.5813 19.1357 8.76013 19.405 8.98605 19.6319C9.21197 19.8588 9.48051 20.0387 9.77624 20.1614C10.072 20.2841 10.389 20.3472 10.7092 20.3469M15.7518 10.1713H17.9418C18.0192 10.1731 18.0963 10.1594 18.1683 10.1309C18.2403 10.1024 18.3059 10.0598 18.3612 10.0054C18.4164 9.95111 18.4602 9.88625 18.4899 9.8147C18.5196 9.74314 18.5346 9.66635 18.5341 9.58888C18.5348 9.51084 18.52 9.43343 18.4905 9.36118C18.4609 9.28894 18.4173 9.2233 18.3621 9.16811C18.3069 9.11292 18.2413 9.06929 18.1691 9.03977C18.0968 9.01025 18.0194 8.99542 17.9413 8.99617H15.7513C15.6733 8.99548 15.596 9.01035 15.5238 9.0399C15.4516 9.06944 15.386 9.11308 15.3309 9.16827C15.2757 9.22345 15.2321 9.28906 15.2026 9.36128C15.1731 9.4335 15.1583 9.51088 15.1591 9.58888C15.1591 9.90045 15.4004 10.1713 15.7518 10.1713ZM15.7518 12.9943H17.9418C18.0198 12.995 18.0971 12.9801 18.1693 12.9506C18.2415 12.921 18.3071 12.8774 18.3623 12.8222C18.4174 12.767 18.461 12.7014 18.4905 12.6292C18.52 12.557 18.5348 12.4796 18.5341 12.4016C18.5346 12.3241 18.5196 12.2473 18.4898 12.1757C18.4601 12.1041 18.4163 12.0392 18.361 11.9849C18.3057 11.9306 18.2401 11.8879 18.168 11.8594C18.0959 11.831 18.0188 11.8173 17.9413 11.8192H15.7513C15.6739 11.8173 15.5968 11.8311 15.5247 11.8596C15.4527 11.8881 15.387 11.9308 15.3318 11.9852C15.2766 12.0396 15.2328 12.1045 15.2031 12.1761C15.1735 12.2477 15.1585 12.3245 15.1591 12.402C15.1584 12.48 15.1732 12.5574 15.2028 12.6296C15.2323 12.7018 15.276 12.7674 15.3312 12.8225C15.3863 12.8777 15.452 12.9213 15.5242 12.9507C15.5964 12.9802 15.6738 12.9951 15.7518 12.9943Z" fill="#1E293B"/>
</svg>
