<svg width="18" height="18" viewBox="0 0 18 18" fill="none" xmlns="http://www.w3.org/2000/svg">
<path d="M9 18C8.71667 18 8.47917 17.9042 8.2875 17.7125C8.09583 17.5208 8 17.2833 8 17V13C8 12.7167 8.09583 12.4792 8.2875 12.2875C8.47917 12.0958 8.71667 12 9 12C9.28333 12 9.52083 12.0958 9.7125 12.2875C9.90417 12.4792 10 12.7167 10 13V14H17C17.2833 14 17.5208 14.0958 17.7125 14.2875C17.9042 14.4792 18 14.7167 18 15C18 15.2833 17.9042 15.5208 17.7125 15.7125C17.5208 15.9042 17.2833 16 17 16H10V17C10 17.2833 9.90417 17.5208 9.7125 17.7125C9.52083 17.9042 9.28333 18 9 18ZM1 16C0.716667 16 0.479167 15.9042 0.2875 15.7125C0.0958333 15.5208 0 15.2833 0 15C0 14.7167 0.0958333 14.4792 0.2875 14.2875C0.479167 14.0958 0.716667 14 1 14H5C5.28333 14 5.52083 14.0958 5.7125 14.2875C5.90417 14.4792 6 14.7167 6 15C6 15.2833 5.90417 15.5208 5.7125 15.7125C5.52083 15.9042 5.28333 16 5 16H1ZM5 12C4.71667 12 4.47917 11.9042 4.2875 11.7125C4.09583 11.5208 4 11.2833 4 11V10H1C0.716667 10 0.479167 9.90417 0.2875 9.7125C0.0958333 9.52083 0 9.28333 0 9C0 8.71667 0.0958333 8.47917 0.2875 8.2875C0.479167 8.09583 0.716667 8 1 8H4V7C4 6.71667 4.09583 6.47917 4.2875 6.2875C4.47917 6.09583 4.71667 6 5 6C5.28333 6 5.52083 6.09583 5.7125 6.2875C5.90417 6.47917 6 6.71667 6 7V11C6 11.2833 5.90417 11.5208 5.7125 11.7125C5.52083 11.9042 5.28333 12 5 12ZM9 10C8.71667 10 8.47917 9.90417 8.2875 9.7125C8.09583 9.52083 8 9.28333 8 9C8 8.71667 8.09583 8.47917 8.2875 8.2875C8.47917 8.09583 8.71667 8 9 8H17C17.2833 8 17.5208 8.09583 17.7125 8.2875C17.9042 8.47917 18 8.71667 18 9C18 9.28333 17.9042 9.52083 17.7125 9.7125C17.5208 9.90417 17.2833 10 17 10H9ZM13 6C12.7167 6 12.4792 5.90417 12.2875 5.7125C12.0958 5.52083 12 5.28333 12 5V1C12 0.716667 12.0958 0.479167 12.2875 0.2875C12.4792 0.0958333 12.7167 0 13 0C13.2833 0 13.5208 0.0958333 13.7125 0.2875C13.9042 0.479167 14 0.716667 14 1V2H17C17.2833 2 17.5208 2.09583 17.7125 2.2875C17.9042 2.47917 18 2.71667 18 3C18 3.28333 17.9042 3.52083 17.7125 3.7125C17.5208 3.90417 17.2833 4 17 4H14V5C14 5.28333 13.9042 5.52083 13.7125 5.7125C13.5208 5.90417 13.2833 6 13 6ZM1 4C0.716667 4 0.479167 3.90417 0.2875 3.7125C0.0958333 3.52083 0 3.28333 0 3C0 2.71667 0.0958333 2.47917 0.2875 2.2875C0.479167 2.09583 0.716667 2 1 2H9C9.28333 2 9.52083 2.09583 9.7125 2.2875C9.90417 2.47917 10 2.71667 10 3C10 3.28333 9.90417 3.52083 9.7125 3.7125C9.52083 3.90417 9.28333 4 9 4H1Z" fill="#0284C7"/>
</svg>
