<svg width="41" height="40" viewBox="0 0 41 40" fill="none" xmlns="http://www.w3.org/2000/svg">
<path d="M20.4996 17.2501V20.9167M20.4996 24.5834H20.5087M29.4187 25.5L22.0854 12.6667C21.9255 12.3846 21.6936 12.1499 21.4134 11.9866C21.1332 11.8233 20.8147 11.7373 20.4904 11.7373C20.1661 11.7373 19.8476 11.8233 19.5674 11.9866C19.2872 12.1499 19.0553 12.3846 18.8954 12.6667L11.5621 25.5C11.4004 25.78 11.3157 26.0976 11.3164 26.4208C11.3171 26.7441 11.4033 27.0614 11.5661 27.3406C11.729 27.6197 11.9628 27.8509 12.2438 28.0106C12.5248 28.1704 12.843 28.253 13.1662 28.25H27.8329C28.1546 28.2497 28.4705 28.1648 28.7489 28.0037C29.0274 27.8427 29.2585 27.6112 29.4192 27.3326C29.5799 27.0539 29.6644 26.7379 29.6644 26.4162C29.6643 26.0946 29.5796 25.7786 29.4187 25.5Z" stroke="#18181B" stroke-linecap="round" stroke-linejoin="round"/>
</svg>
