<svg width="22" height="16" viewBox="0 0 22 16" fill="none" xmlns="http://www.w3.org/2000/svg">
<path d="M11 11C10.45 11 9.97933 10.8043 9.588 10.413C9.19667 10.0217 9.00067 9.55067 9 9C9 8.61667 9.07933 8.23767 9.238 7.863C9.39667 7.48833 9.70067 6.95067 10.15 6.25L10.575 5.625C10.675 5.475 10.8167 5.4 11 5.4C11.1833 5.4 11.325 5.475 11.425 5.625L11.85 6.25C12.3 6.95 12.6043 7.48767 12.763 7.863C12.9217 8.23833 13.0007 8.61733 13 9C13 9.55 12.8043 10.021 12.413 10.413C12.0217 10.805 11.5507 11.0007 11 11ZM2 13H6.1C5.81667 12.7167 5.55433 12.4083 5.313 12.075C5.07167 11.7417 4.859 11.3833 4.675 11H2V13ZM11 13C12.3833 13 13.5627 12.5123 14.538 11.537C15.5133 10.5617 16.0007 9.38267 16 8C16 6.61667 15.5123 5.43767 14.537 4.463C13.5617 3.48833 12.3827 3.00067 11 3C9.61667 3 8.43767 3.48767 7.463 4.463C6.48833 5.43833 6.00067 6.61733 6 8C6 9.38333 6.48767 10.5627 7.463 11.538C8.43833 12.5133 9.61733 13.0007 11 13ZM17.325 5H20V3H15.9C16.1833 3.28333 16.446 3.59167 16.688 3.925C16.93 4.25833 17.1423 4.61667 17.325 5ZM2 15C2 15.2833 1.904 15.521 1.712 15.713C1.52 15.905 1.28267 16.0007 1 16C0.716667 16 0.479333 15.904 0.288 15.712C0.0966666 15.52 0.000666667 15.2827 0 15V9C0 8.71667 0.096 8.47933 0.288 8.288C0.48 8.09667 0.717333 8.00067 1 8C1.28333 8 1.521 8.096 1.713 8.288C1.905 8.48 2.00067 8.71733 2 9H4.075C4.04167 8.83333 4.021 8.67067 4.013 8.512C4.005 8.35333 4.00067 8.18267 4 8C4 6.05 4.67933 4.396 6.038 3.038C7.39667 1.68 9.05067 1.00067 11 1H20C20 0.716667 20.096 0.479333 20.288 0.288C20.48 0.0966668 20.7173 0.000666667 21 0C21.2833 0 21.521 0.0960001 21.713 0.288C21.905 0.48 22.0007 0.717333 22 1V7C22 7.28333 21.904 7.521 21.712 7.713C21.52 7.905 21.2827 8.00067 21 8C20.7167 8 20.4793 7.904 20.288 7.712C20.0967 7.52 20.0007 7.28267 20 7H17.925C17.9583 7.16667 17.9793 7.32933 17.988 7.488C17.9967 7.64667 18.0007 7.81733 18 8C18 9.95 17.321 11.6043 15.963 12.963C14.605 14.3217 12.9507 15.0007 11 15H2Z" fill="#94A3B8"/>
</svg>
