<svg width="22" height="16" viewBox="0 0 22 16" fill="none" xmlns="http://www.w3.org/2000/svg">
<path d="M11 11C11.55 11 12.021 10.8043 12.413 10.413C12.805 10.0217 13.0007 9.55067 13 9C13 8.61667 12.9207 8.23767 12.762 7.863C12.6033 7.48834 12.2993 6.95067 11.85 6.25L11.425 5.625C11.325 5.475 11.1833 5.4 11 5.4C10.8167 5.4 10.675 5.475 10.575 5.625L10.15 6.25C9.7 6.95 9.39567 7.48767 9.237 7.863C9.07833 8.23834 8.99933 8.61734 9 9C9 9.55 9.196 10.021 9.588 10.413C9.98 10.805 10.4507 11.0007 11 11ZM11 14.25C9.26667 14.25 7.79167 13.6417 6.575 12.425C5.35833 11.2083 4.75 9.73334 4.75 8C4.75 6.26667 5.35833 4.79167 6.575 3.575C7.79167 2.35834 9.26667 1.75 11 1.75C12.7333 1.75 14.2083 2.35834 15.425 3.575C16.6417 4.79167 17.25 6.26667 17.25 8C17.25 9.73334 16.6417 11.2083 15.425 12.425C14.2083 13.6417 12.7333 14.25 11 14.25ZM20 7H18.675C18.5083 5.7 18.0417 4.51667 17.275 3.45C16.5083 2.38334 15.525 1.56667 14.325 1H20C20 0.71667 20.096 0.479004 20.288 0.287004C20.48 0.0950036 20.7173 -0.000663206 21 3.4602e-06C21.2833 3.4602e-06 21.521 0.0960036 21.713 0.288004C21.905 0.480004 22.0007 0.717337 22 1V7C22 7.28334 21.904 7.521 21.712 7.713C21.52 7.905 21.2827 8.00067 21 8C20.7333 8 20.546 7.879 20.438 7.637C20.33 7.395 20.184 7.18267 20 7ZM0 15V9C0 8.71667 0.096 8.47934 0.288 8.288C0.48 8.09667 0.717333 8.00067 1 8C1.28333 8 1.521 8.096 1.713 8.288C1.905 8.48 2.00067 8.71734 2 9H3.325C3.49167 10.3 3.95833 11.4833 4.725 12.55C5.49167 13.6167 6.475 14.4333 7.675 15H2C2 15.2833 1.904 15.521 1.712 15.713C1.52 15.905 1.28267 16.0007 1 16C0.716667 16 0.479333 15.904 0.288 15.712C0.0966666 15.52 0.000666667 15.2827 0 15Z" fill="#1E293B"/>
</svg>
