<svg width="28" height="28" viewBox="0 0 28 28" fill="none" xmlns="http://www.w3.org/2000/svg">
<path d="M23.4001 4.54667C22.1777 3.3119 20.7216 2.33289 19.1169 1.66674C17.5122 1.00058 15.7909 0.660614 14.0534 0.666667C6.7734 0.666667 0.840065 6.6 0.840065 13.88C0.840065 16.2133 1.4534 18.48 2.60007 20.48L0.733398 27.3333L7.7334 25.4933C9.66673 26.5467 11.8401 27.1067 14.0534 27.1067C21.3334 27.1067 27.2667 21.1733 27.2667 13.8933C27.2667 10.36 25.8934 7.04 23.4001 4.54667ZM14.0534 24.8667C12.0801 24.8667 10.1467 24.3333 8.4534 23.3333L8.0534 23.0933L3.8934 24.1867L5.00006 20.1333L4.7334 19.72C3.63706 17.9693 3.05492 15.9457 3.0534 13.88C3.0534 7.82667 7.98673 2.89333 14.0401 2.89333C16.9734 2.89333 19.7334 4.04 21.8001 6.12C22.8234 7.13862 23.6343 8.35022 24.1859 9.68457C24.7375 11.0189 25.0188 12.4495 25.0134 13.8933C25.0401 19.9467 20.1067 24.8667 14.0534 24.8667ZM20.0801 16.6533C19.7467 16.4933 18.1201 15.6933 17.8267 15.5733C17.5201 15.4667 17.3067 15.4133 17.0801 15.7333C16.8534 16.0667 16.2267 16.8133 16.0401 17.0267C15.8534 17.2533 15.6534 17.28 15.3201 17.1067C14.9867 16.9467 13.9201 16.5867 12.6667 15.4667C11.6801 14.5867 11.0267 13.5067 10.8267 13.1733C10.6401 12.84 10.8001 12.6667 10.9734 12.4933C11.1201 12.3467 11.3067 12.1067 11.4667 11.92C11.6267 11.7333 11.6934 11.5867 11.8001 11.3733C11.9067 11.1467 11.8534 10.96 11.7734 10.8C11.6934 10.64 11.0267 9.01333 10.7601 8.34667C10.4934 7.70667 10.2134 7.78667 10.0134 7.77333H9.3734C9.14673 7.77333 8.80006 7.85333 8.4934 8.18667C8.20006 8.52 7.34673 9.32 7.34673 10.9467C7.34673 12.5733 8.5334 14.1467 8.6934 14.36C8.8534 14.5867 11.0267 17.92 14.3334 19.3467C15.1201 19.6933 15.7334 19.8933 16.2134 20.04C17.0001 20.2933 17.7201 20.2533 18.2934 20.1733C18.9334 20.08 20.2534 19.3733 20.5201 18.6C20.8001 17.8267 20.8001 17.1733 20.7067 17.0267C20.6134 16.88 20.4134 16.8133 20.0801 16.6533Z"/>
</svg>
