<svg width="32" height="32" viewBox="0 0 32 32" fill="none" xmlns="http://www.w3.org/2000/svg">
<path d="M21.6655 19.0187C20.1096 17.6356 18.1002 16.8716 16.0183 16.8716C13.9365 16.8716 11.9271 17.6356 10.3712 19.0187C10.2397 19.1325 10.1321 19.2713 10.0547 19.427C9.97731 19.5826 9.93162 19.7522 9.92028 19.9256C9.90893 20.0991 9.93218 20.2732 9.98865 20.4376C10.0451 20.602 10.1337 20.7536 10.2493 20.8835C10.3648 21.0134 10.505 21.1191 10.6617 21.1944C10.8185 21.2696 10.9886 21.313 11.1622 21.322C11.3359 21.331 11.5095 21.3054 11.6732 21.2467C11.8368 21.1879 11.9872 21.0973 12.1155 20.98C13.1909 20.0242 14.5796 19.4963 16.0183 19.4963C17.4571 19.4963 18.8458 20.0242 19.9212 20.98C20.1814 21.2113 20.5229 21.3298 20.8705 21.3093C21.218 21.2889 21.5433 21.1312 21.7746 20.8709C22.0059 20.6107 22.1244 20.2692 22.1039 19.9216C22.0835 19.574 21.9258 19.2488 21.6655 19.0175V19.0187Z" fill="black"/>
<path d="M16.0175 11.4812C12.4936 11.4764 9.10053 12.8157 6.53004 15.2262C6.39989 15.3428 6.29433 15.4842 6.21955 15.6421C6.14477 15.8 6.10227 15.9713 6.09455 16.1459C6.08682 16.3204 6.11403 16.4947 6.17457 16.6586C6.23511 16.8225 6.32777 16.9727 6.4471 17.1003C6.56644 17.228 6.71006 17.3305 6.86954 17.4018C7.02902 17.4732 7.20115 17.5121 7.37583 17.516C7.5505 17.52 7.72422 17.4891 7.88679 17.4251C8.04936 17.361 8.1975 17.2652 8.32254 17.1431C10.4097 15.1918 13.1603 14.1063 16.0175 14.1063C18.8748 14.1063 21.6254 15.1918 23.7125 17.1431C23.8376 17.2652 23.9857 17.361 24.1483 17.4251C24.3109 17.4891 24.4846 17.52 24.6593 17.516C24.8339 17.5121 25.0061 17.4732 25.1655 17.4018C25.325 17.3305 25.4686 17.228 25.588 17.1003C25.7073 16.9727 25.8 16.8225 25.8605 16.6586C25.9211 16.4947 25.9483 16.3204 25.9405 16.1459C25.9328 15.9713 25.8903 15.8 25.8155 15.6421C25.7407 15.4842 25.6352 15.3428 25.505 15.2262C22.9345 12.8157 19.5415 11.4764 16.0175 11.4812Z" fill="black"/>
<path d="M28.8752 10.9913C25.3366 7.83399 20.7601 6.08908 16.0177 6.08908C11.2754 6.08908 6.6988 7.83399 3.16022 10.9913C3.02723 11.1049 2.91829 11.2439 2.8398 11.4002C2.7613 11.5565 2.71484 11.7269 2.70314 11.9014C2.69143 12.0759 2.71473 12.251 2.77166 12.4164C2.82858 12.5818 2.91799 12.7341 3.03462 12.8645C3.15126 12.9948 3.29277 13.1005 3.45083 13.1754C3.6089 13.2503 3.78034 13.2928 3.95508 13.3005C4.12981 13.3081 4.30432 13.2808 4.46835 13.2201C4.63237 13.1594 4.78261 13.0665 4.91022 12.9469C7.96749 10.2202 11.9209 8.71342 16.0174 8.71342C20.1139 8.71342 24.0673 10.2202 27.1246 12.9469C27.3841 13.1789 27.7252 13.2984 28.0727 13.279C28.4203 13.2596 28.746 13.1029 28.978 12.8434C29.2101 12.5839 29.3296 12.2429 29.3102 11.8953C29.2908 11.5477 29.1341 11.2221 28.8746 10.99L28.8752 10.9913Z" fill="black"/>
<path d="M16.0176 26.5881C17.1221 26.5881 18.0176 25.6927 18.0176 24.5881C18.0176 23.4836 17.1221 22.5881 16.0176 22.5881C14.913 22.5881 14.0176 23.4836 14.0176 24.5881C14.0176 25.6927 14.913 26.5881 16.0176 26.5881Z" fill="black"/>
</svg>
