<svg width="182" height="126" viewBox="0 0 182 126" fill="none" xmlns="http://www.w3.org/2000/svg">
<path d="M165.557 69.7621H164.578V7.87146C164.578 3.98604 161.417 0.824585 157.531 0.824585C153.651 0.824585 150.49 3.98604 150.49 7.87146V69.7621H16.3385C7.47917 69.7621 0.296875 76.9444 0.296875 85.8038V109.21C0.296875 118.069 7.47917 125.257 16.3385 125.257H165.557C174.422 125.257 181.604 118.069 181.604 109.21V85.8038C181.599 76.9444 174.417 69.7621 165.557 69.7621ZM136.12 97.3871C136.12 100.892 133.276 103.736 129.771 103.736C126.266 103.736 123.427 100.892 123.427 97.3871C123.427 93.8819 126.266 91.0433 129.771 91.0433C133.276 91.0433 136.12 93.8819 136.12 97.3871ZM107.568 96.6788V98.3402C107.568 99.3142 106.776 100.106 105.802 100.106H95.2135C94.2396 100.106 93.4479 99.3142 93.4479 98.3402V96.6788C93.4479 95.7048 94.2396 94.9131 95.2135 94.9131H105.802C106.776 94.9131 107.568 95.7048 107.568 96.6788ZM87.4583 96.6788V98.3402C87.4583 99.3142 86.6667 100.106 85.6927 100.106H75.1042C74.1302 100.106 73.3385 99.3142 73.3385 98.3402V96.6788C73.3385 95.7048 74.1302 94.9131 75.1042 94.9131H85.6927C86.6667 94.9131 87.4583 95.7048 87.4583 96.6788ZM66.0938 96.6788V98.3402C66.0938 99.3142 65.3021 100.106 64.3281 100.106H53.7448C52.7708 100.106 51.974 99.3142 51.974 98.3402V96.6788C51.974 95.7048 52.7708 94.9131 53.7448 94.9131H64.3281C65.3021 94.9131 66.0938 95.7048 66.0938 96.6788ZM45.151 96.6788V98.3402C45.151 99.3142 44.3594 100.106 43.3854 100.106H32.7969C31.8229 100.106 31.0312 99.3142 31.0312 98.3402V96.6788C31.0312 95.7048 31.8229 94.9131 32.7969 94.9131H43.3854C44.3594 94.9131 45.151 95.7048 45.151 96.6788ZM23.3698 96.6788V98.3402C23.3698 99.3142 22.5781 100.106 21.6042 100.106H11.0156C10.0417 100.106 9.25 99.3142 9.25 98.3402V96.6788C9.25 95.7048 10.0417 94.9131 11.0156 94.9131H21.599C22.5781 94.9131 23.3698 95.7048 23.3698 96.6788ZM146.526 91.0433C150.031 91.0433 152.875 93.8819 152.875 97.3871C152.875 100.892 150.031 103.736 146.526 103.736C143.021 103.736 140.177 100.892 140.177 97.3871C140.182 93.8819 143.021 91.0433 146.526 91.0433ZM163.281 91.0433C166.786 91.0433 169.63 93.8819 169.63 97.3871C169.63 100.892 166.786 103.736 163.281 103.736C159.776 103.736 156.932 100.892 156.932 97.3871C156.938 93.8819 159.776 91.0433 163.281 91.0433Z" fill="#0284C7"/>
</svg>
